<svg xmlns="http://www.w3.org/2000/svg" width="161" height="121" viewBox="0 0 161 121" fill="none"><g clip-path="url(#clip0_444:826)"><path d="M74.3347 21.45C74.5931 20.6997 74.7315 19.9134 74.7447 19.12C74.7447 18.67 74.8547 18.22 74.8947 17.76C75.0898 16.3566 75.5406 15.0008 76.2247 13.76C76.5214 13.1373 76.9639 12.5953 77.5147 12.18C78.5147 11.43 79.5147 10.6 80.5147 9.94998C81.9196 9.0708 83.2009 8.00809 84.3247 6.78998C84.6798 6.42088 84.9949 6.0153 85.2647 5.57998C85.7847 4.68998 86.2647 3.77998 86.7247 2.86998C86.7619 2.80969 86.8113 2.75782 86.8697 2.71767C86.9281 2.67753 86.9942 2.64999 87.0638 2.63682C87.1334 2.62365 87.2051 2.62513 87.2741 2.64117C87.3431 2.65721 87.408 2.68745 87.4647 2.72998C87.6449 2.86186 87.8006 3.02432 87.9247 3.20998C88.2835 3.79708 88.4929 4.46318 88.5347 5.14998C88.6331 6.51693 88.5963 7.89027 88.4247 9.24998C88.3092 10.0411 88.0482 10.804 87.6547 11.5C87.2747 12.2 86.8947 12.9 86.4947 13.59C86.3844 13.7916 86.2464 13.9767 86.0847 14.14C85.6792 14.4563 85.3992 14.9064 85.2947 15.41C84.8887 16.0278 84.448 16.6221 83.9747 17.19C82.9807 18.4311 81.6866 19.3983 80.2147 20C80.0576 20.0635 79.9097 20.1476 79.7747 20.25C79.1934 20.6153 78.537 20.8444 77.8547 20.92C77.5147 20.92 77.1847 21.05 76.8547 21.12C76.3479 21.2251 75.8905 21.496 75.5547 21.89C74.9347 22.63 74.3447 23.39 73.7447 24.15C73.7447 24.2 73.7447 24.34 73.8047 24.43C73.8647 24.52 73.9047 24.49 73.9547 24.48C74.349 24.4318 74.7398 24.3583 75.1247 24.26C76.2747 23.94 77.4447 23.68 78.6047 23.39C80.3147 22.97 82.0047 22.45 83.7047 21.97C84.8053 21.6504 85.9239 21.3966 87.0547 21.21C88.5747 20.98 90.0547 20.66 91.5947 20.42C93.7347 20.0866 95.8614 19.69 97.9747 19.23C98.5347 19.11 99.1047 19.06 99.6647 18.97C101.95 18.5051 104.191 17.846 106.365 17C107.264 16.6375 108.143 16.2235 108.995 15.76C109.286 15.5805 109.563 15.38 109.825 15.16C110.096 14.9463 110.292 14.6522 110.385 14.32C110.595 13.67 110.835 13.03 111.065 12.39C111.276 11.8525 111.616 11.3751 112.055 11C112.905 10.24 113.765 9.48998 114.675 8.80998C115.186 8.48033 115.733 8.20865 116.305 7.99998C117.035 7.68998 117.795 7.42998 118.535 7.12998C118.907 6.98715 119.271 6.82356 119.625 6.63998C120.591 6.26542 121.389 5.55541 121.875 4.63998C121.995 4.34998 122.575 4.40998 122.755 4.69998C122.852 4.84162 122.92 5.00146 122.955 5.16998C122.955 5.72998 123.025 6.29998 123.045 6.86998C123.068 7.38525 122.983 7.89965 122.795 8.37998C122.669 8.63519 122.585 8.90853 122.545 9.18998C122.394 10.1517 121.99 11.0561 121.375 11.81C120.966 12.5004 120.388 13.0752 119.695 13.48C119.015 13.91 118.375 14.38 117.695 14.8C116.704 15.3732 115.616 15.7564 114.485 15.93C114.206 15.961 113.924 15.9372 113.655 15.86C112.977 15.7163 112.27 15.8117 111.655 16.13C110.315 16.75 108.945 17.31 107.585 17.89C107.529 17.9097 107.477 17.9408 107.434 17.9813C107.391 18.0218 107.356 18.0708 107.333 18.1253C107.309 18.1798 107.297 18.2385 107.298 18.2978C107.298 18.3571 107.311 18.4158 107.335 18.47C107.946 18.5799 108.573 18.5799 109.185 18.47C111.565 18.14 113.965 18.09 116.345 17.89C117.995 17.76 119.655 17.64 121.345 17.43C122.533 17.295 123.728 17.2249 124.925 17.22H126.055C127.308 17.2061 128.557 17.0721 129.785 16.82C131.344 16.4737 132.924 16.2265 134.515 16.08C134.795 16.08 135.075 15.99 135.355 15.94C135.696 15.8914 136.009 15.7209 136.235 15.46L137.825 13.67C138.5 12.8192 139.323 12.0976 140.255 11.54C141.838 10.6255 143.61 10.0851 145.435 9.95998C146.106 9.98214 146.778 9.92169 147.435 9.77998C147.883 9.68496 148.346 9.68496 148.795 9.77998C149.245 9.84998 149.685 9.97998 150.145 10.02C150.605 10.06 151.045 10.02 151.495 10.02C151.565 10.02 151.685 10.16 151.695 10.24C151.699 10.2939 151.69 10.3482 151.667 10.3973C151.644 10.4464 151.609 10.4887 151.565 10.52C150.884 10.945 150.084 11.138 149.285 11.07C148.716 11.0232 148.145 11.0065 147.575 11.02C147.005 10.9796 146.433 11.0406 145.885 11.2C145.61 11.273 145.329 11.3166 145.045 11.33C143.691 11.5263 142.365 11.8821 141.095 12.39C140.931 12.4446 140.781 12.5332 140.655 12.65C139.965 13.33 139.285 14.02 138.655 14.71C138.655 14.71 138.655 14.82 138.655 14.87C138.655 14.92 138.725 15.06 138.875 15.07C139.389 15.0964 139.901 14.9933 140.365 14.77C141.415 14.3387 142.494 13.9812 143.595 13.7C143.817 13.6646 144.043 13.6646 144.265 13.7C144.265 13.7 144.415 13.75 144.415 13.77C144.415 13.79 144.415 14.03 144.365 14.06C144.075 14.2389 143.771 14.3927 143.455 14.52C142.558 14.8898 141.698 15.3418 140.885 15.87C140.835 15.87 140.835 16.04 140.885 16.13C140.935 16.22 140.975 16.2 141.025 16.2C141.424 16.1841 141.822 16.1373 142.215 16.06C143.215 15.76 144.275 15.41 145.315 15.06C146.344 14.7158 147.281 14.1412 148.055 13.38C148.549 12.9074 149.07 12.4633 149.615 12.05C149.945 11.8272 150.305 11.6522 150.685 11.53C150.795 11.53 150.985 11.62 151.105 11.72C151.225 11.82 151.105 11.95 151.105 12.03C150.338 13.0204 149.477 13.9346 148.535 14.76C148.238 15.0287 147.901 15.2482 147.535 15.41C147.03 15.67 146.505 15.8874 145.965 16.06C145.355 16.23 144.785 16.5 144.205 16.71C142.632 17.3918 140.897 17.6104 139.205 17.34C138.655 17.22 138.075 17.22 137.515 17.15C137.116 17.0895 136.709 17.1202 136.325 17.24C135.893 17.3979 135.428 17.4427 134.975 17.37C134.012 17.2337 133.031 17.3157 132.105 17.61C131.775 17.71 131.425 17.72 131.105 17.82C130.787 17.95 130.477 18.0968 130.175 18.26C131.342 18.9597 132.615 19.4663 133.945 19.76C134.245 19.65 134.615 19.5 134.945 19.38C137.143 18.6875 139.514 18.7758 141.655 19.63C142.194 19.8235 142.685 20.1304 143.095 20.53C143.515 20.92 143.915 21.32 144.295 21.74C144.965 22.5174 145.747 23.1914 146.615 23.74C146.975 23.94 147.035 24.15 146.965 24.43C146.932 24.5974 146.844 24.7491 146.716 24.8613C146.587 24.9735 146.425 25.0399 146.255 25.05C145.192 25.2663 144.109 25.3735 143.025 25.37C142.57 25.3695 142.117 25.4232 141.675 25.53C140.49 25.7431 139.272 25.6731 138.12 25.3255C136.967 24.9779 135.914 24.3626 135.045 23.53C134.545 23.06 134.045 22.62 133.545 22.13C133.045 21.64 132.735 21.18 132.345 20.71C131.725 20.52 131.115 20.37 130.535 20.14C128.924 19.5587 127.242 19.1988 125.535 19.07C124.35 18.9105 123.159 18.8103 121.965 18.77C121.45 18.7341 120.932 18.7644 120.425 18.86C119.202 19.137 117.946 19.2414 116.695 19.17C114.635 19.17 112.595 19.38 110.545 19.45C110.151 19.4957 109.76 19.5658 109.375 19.66L107.025 20.09C106.855 20.1045 106.684 20.1045 106.515 20.09C105.955 19.9842 105.384 19.9473 104.815 19.98C104.257 20.079 103.691 20.1292 103.125 20.13C101.584 20.1148 100.044 20.2352 98.5247 20.49C97.6162 20.5472 96.7115 20.6541 95.8147 20.81C95.6747 20.81 95.6247 20.94 95.6647 21.04C95.679 21.0927 95.7065 21.1409 95.7447 21.18C95.8311 21.2526 95.9291 21.3101 96.0347 21.35C96.5147 21.53 97.0347 21.7 97.4847 21.86C97.873 21.9561 98.2539 22.0798 98.6247 22.23C98.9686 22.4316 99.3629 22.5311 99.7613 22.517C100.16 22.5028 100.546 22.3755 100.875 22.15C101.078 22.0471 101.288 21.9602 101.505 21.89C102.506 21.4443 103.632 21.3664 104.685 21.67C105.115 21.8 105.575 21.88 106.015 21.99C106.677 22.1678 107.301 22.4661 107.855 22.87C108.957 23.7719 109.883 24.8705 110.585 26.11C110.835 26.63 111.055 27.11 111.275 27.68C111.516 28.3867 111.924 29.0248 112.465 29.54C112.765 29.79 112.695 30.16 112.775 30.48C112.855 30.8 112.575 30.94 112.385 30.96C112.272 30.9749 112.158 30.9749 112.045 30.96C110.398 30.8382 108.764 30.5705 107.165 30.16C106.735 30.03 106.275 30 105.825 29.91C104.911 29.609 104.021 29.2379 103.165 28.8C102.189 28.4553 101.376 27.7603 100.885 26.85C100.675 26.45 100.415 26.08 100.175 25.69C100.07 25.4897 99.953 25.296 99.8247 25.11C99.0747 24.16 99.3347 24.02 97.7147 23.55C96.5147 23.2 95.3347 22.77 94.1247 22.44C93.7999 22.3397 93.4641 22.2793 93.1247 22.26C91.8258 22.0846 90.5063 22.1354 89.2247 22.41C88.7447 22.22 88.3347 22.48 87.9047 22.59C87.4645 22.7097 87.0169 22.7999 86.5647 22.86C85.5963 22.935 84.6434 23.1471 83.7347 23.49C83.2247 23.71 82.6347 23.75 82.0947 23.93C81.1429 24.1123 80.2163 24.4077 79.3347 24.81C77.7347 25.17 76.1647 25.74 74.5347 26.01C73.2027 26.2986 71.9005 26.7104 70.6447 27.24C69.2547 27.76 67.8947 28.35 66.5247 28.89C66.2556 28.9837 65.9819 29.0638 65.7047 29.13C64.7606 29.3483 63.8564 29.7127 63.0247 30.21C62.7678 30.3263 62.504 30.4265 62.2347 30.51C61.8749 30.6493 61.5379 30.8414 61.2347 31.08C60.7849 31.4285 60.2818 31.702 59.7447 31.89C59.6989 31.9199 59.6666 31.9666 59.6547 32.02C59.6547 32.14 59.7247 32.21 59.8647 32.21C61.1761 32.11 62.4947 32.1603 63.7947 32.36C64.4174 32.4455 65.0504 32.3111 65.5847 31.98C67.0393 31.1925 68.6031 30.6262 70.2247 30.3C72.1913 29.9092 74.2203 29.9605 76.1647 30.45C76.9447 30.65 77.7047 30.89 78.4547 31.15C78.8879 31.2973 79.3064 31.4848 79.7047 31.71C81.423 32.6173 82.9588 33.8344 84.2347 35.3C84.9911 36.3105 85.6036 37.4211 86.0547 38.6C86.1278 38.8153 86.155 39.0435 86.1347 39.27C86.1347 39.36 86.0547 39.52 85.9747 39.54C85.3323 39.7961 84.6604 39.9707 83.9747 40.06C82.1547 40.17 80.3447 40.35 78.5347 40.6C77.8571 40.725 77.1623 40.725 76.4847 40.6C76.3163 40.5662 76.146 40.5428 75.9747 40.53C74.2215 40.3779 72.519 39.8638 70.9747 39.02C70.3647 38.71 69.7447 38.42 69.1247 38.14C68.0185 37.6502 67.1072 36.8057 66.5347 35.74C66.3608 35.4459 66.1563 35.1711 65.9247 34.92C64.9947 33.86 64.9847 33.92 63.6247 33.8C61.8607 33.6722 60.0876 33.7866 58.3547 34.14C57.8547 34.24 57.3547 34.26 56.8347 34.36C55.813 34.4532 54.8437 34.8542 54.0547 35.51C53.8897 35.669 53.6865 35.7826 53.4647 35.84C53.0267 35.9603 52.6204 36.1753 52.2747 36.47C51.5947 37 50.9347 37.55 50.2747 38.06C49.5739 38.4573 48.9052 38.9087 48.2747 39.41C48.0536 39.585 47.8584 39.7904 47.6947 40.02C47.4438 40.4705 47.0781 40.8466 46.6347 41.11C45.863 41.5908 45.1484 42.1578 44.5047 42.8C44.1341 43.1632 43.7363 43.4975 43.3147 43.8C42.701 44.2152 42.18 44.7532 41.7847 45.38C41.5318 45.759 41.2214 46.0964 40.8647 46.38C39.4948 47.5026 38.3044 48.8279 37.3347 50.31C37.2485 50.4588 37.1444 50.5965 37.0247 50.72C36.1437 51.7639 35.3636 52.889 34.6947 54.08C34.3875 54.5584 34.0537 55.0191 33.6947 55.46C33.5 55.668 33.2653 55.8347 33.0047 55.95C32.9293 55.9842 32.8475 56.002 32.7647 56.002C32.6819 56.002 32.6001 55.9842 32.5247 55.95C32.3688 55.8489 32.2354 55.7167 32.133 55.5617C32.0305 55.4067 31.9612 55.2322 31.9292 55.0492C31.8973 54.8661 31.9035 54.6784 31.9475 54.4979C31.9915 54.3174 32.0722 54.1479 32.1847 54C32.678 53.4466 33.0919 52.8273 33.4147 52.16C34.292 50.624 35.2743 49.1505 36.3547 47.75C37.2047 46.6 38.2547 45.63 39.1647 44.53C40.5445 43.0101 42.0174 41.5774 43.5747 40.24C44.1147 39.74 44.7047 39.24 45.2647 38.81C46.1719 38.1117 46.8053 37.1173 47.0547 36C47.3847 34.38 47.7447 32.77 48.0547 31.15C48.2147 30.31 48.3247 29.46 48.4547 28.62C48.4966 28.4234 48.4942 28.2199 48.4475 28.0244C48.4008 27.8289 48.311 27.6463 48.1847 27.49C47.5704 26.6486 47.1814 25.6641 47.0547 24.63C46.7343 23.353 46.6261 22.032 46.7347 20.72C46.8573 18.2594 47.6605 15.8811 49.0547 13.85C49.6047 13.12 50.1147 12.37 50.6347 11.62C51.1547 10.87 51.4947 10.15 51.9147 9.39998C52.0447 9.14998 52.1147 8.85998 52.2647 8.61998C52.8501 7.72243 53.1945 6.68925 53.2647 5.61998C53.2502 5.56763 53.2502 5.51233 53.2647 5.45998C53.2971 5.35019 53.3625 5.25299 53.4519 5.18147C53.5413 5.10995 53.6504 5.06755 53.7647 5.05998C53.9323 5.04067 54.1008 5.08729 54.2347 5.18998C54.4377 5.38234 54.6098 5.60498 54.7447 5.84998C55.4387 7.22755 55.9497 8.68994 56.2647 10.2C56.3747 10.7 56.4547 11.2 56.5847 11.7C56.9179 13.1453 56.9418 14.6448 56.6547 16.1C56.3412 17.788 55.9339 19.4573 55.4347 21.1C54.9463 22.4991 54.2337 23.8096 53.3247 24.98C53.0922 25.2317 52.8814 25.5027 52.6947 25.79C52.2716 26.4024 51.7096 26.9062 51.0547 27.26C50.7547 27.43 50.4647 27.62 50.1747 27.79C50.0274 27.8785 49.9035 28.0009 49.813 28.147C49.7226 28.2931 49.6683 28.4587 49.6547 28.63C49.5297 29.5863 49.3494 30.5345 49.1147 31.47C48.9747 32.02 48.9447 32.59 48.8547 33.15C48.7515 34.1126 48.5878 35.0679 48.3647 36.01C48.3647 36.08 48.4547 36.19 48.5147 36.27C48.5405 36.2849 48.5698 36.2928 48.5997 36.2928C48.6295 36.2928 48.6588 36.2849 48.6847 36.27C49.5947 35.68 50.5047 35.1 51.3947 34.49C52.7529 33.544 54.1617 32.6727 55.6147 31.88C56.9647 31.16 58.3247 30.43 59.7247 29.79C61.5447 28.97 63.3147 28.05 65.1547 27.28C65.7347 27.03 66.3147 26.79 66.8947 26.58C67.3885 26.4325 67.8429 26.1762 68.2247 25.83C68.3813 25.6673 68.5835 25.5557 68.8047 25.51C70.242 25.106 71.542 24.3177 72.5647 23.23C73.2047 22.61 73.7547 22 74.3347 21.45ZM77.7247 19.45C77.8284 19.4969 77.9409 19.5212 78.0547 19.5212C78.1685 19.5212 78.281 19.4969 78.3847 19.45C78.8547 19.25 79.3247 19.04 79.7747 18.8C81.4412 17.8325 82.8967 16.5403 84.0547 15C85.0466 13.6756 85.8853 12.2431 86.5547 10.73C87.2217 9.21194 87.5067 7.5536 87.3847 5.89998C87.4009 5.84787 87.4009 5.79208 87.3847 5.73998C87.3528 5.69615 87.3069 5.66443 87.2547 5.64998C87.2018 5.63997 87.1476 5.63997 87.0947 5.64998C87.0413 5.66792 86.9932 5.69884 86.9547 5.73998C86.0995 6.89047 85.1277 7.94944 84.0547 8.89998C83.7797 9.1863 83.4628 9.42909 83.1147 9.61998C82.0616 10.3932 80.9666 11.1076 79.8347 11.76C79.6947 11.83 79.5947 12 79.4647 12.11C78.3013 13.1254 77.3818 14.3901 76.7747 15.81C76.3618 16.6886 76.1533 17.6493 76.1647 18.62C76.1647 18.67 76.1647 18.77 76.2247 18.77C76.2847 18.77 76.4747 18.77 76.5347 18.77C76.8258 18.4973 77.0997 18.2067 77.3547 17.9C78.0447 17.07 78.6947 16.21 79.3547 15.38C79.7699 14.9529 80.1479 14.4913 80.4847 14C81.1847 12.9548 82.0939 12.0661 83.1547 11.39C83.2347 11.33 83.4347 11.39 83.6047 11.46L82.2847 13.46C81.1479 15.1636 79.8665 16.7662 78.4547 18.25C78.1162 18.5576 77.882 18.9631 77.7847 19.41C77.8847 19.5 77.9047 19.5 77.7847 19.41C77.6647 19.32 77.7647 19.47 77.7247 19.48V19.45ZM50.2947 25.83C50.4358 25.8444 50.5784 25.8268 50.7118 25.7783C50.8452 25.7298 50.9658 25.6517 51.0647 25.55C52.2836 24.4325 53.2516 23.0692 53.9047 21.55C54.2981 20.537 54.6321 19.5019 54.9047 18.45C55.2282 17.3572 55.4426 16.2351 55.5447 15.1C55.6096 14.5352 55.6096 13.9648 55.5447 13.4C55.4793 12.7267 55.3691 12.0586 55.2147 11.4C54.9847 10.4 54.6947 9.39998 54.4247 8.39998C54.4056 8.34489 54.3822 8.29139 54.3547 8.23998C54.2347 7.99998 54.0547 7.92998 53.9547 7.99998C53.8547 8.06998 53.7347 8.12998 53.7047 8.21998C53.5601 8.70534 53.3899 9.18268 53.1947 9.64998C52.6589 10.713 52.0156 11.7182 51.2747 12.65C50.8947 13.14 50.5247 13.65 50.1447 14.14C49.8314 14.6796 49.5574 15.241 49.3247 15.82C49.2147 16.02 49.1247 16.23 49.0147 16.43C48.577 17.2311 48.2762 18.0997 48.1247 19C48.0647 19.34 47.9547 19.66 47.8847 20C47.8338 20.1653 47.8069 20.337 47.8047 20.51C47.729 22.1792 47.9804 23.8472 48.5447 25.42C48.6847 25.35 48.8947 25.31 48.9247 25.21C49.1131 24.7346 49.2408 24.2373 49.3047 23.73C49.4501 22.5979 49.7496 21.491 50.1947 20.44C50.4281 19.7949 50.7886 19.2033 51.2547 18.7C51.3447 18.6 51.5447 18.6 51.6847 18.55C51.7324 18.6495 51.7531 18.7599 51.7447 18.87C51.5423 19.3981 51.4046 19.9488 51.3347 20.51C51.2994 20.9149 51.205 21.3124 51.0547 21.69C50.5826 22.9735 50.316 24.3234 50.2647 25.69C50.2675 25.7379 50.2776 25.7851 50.2947 25.83ZM67.4147 34.41C67.4044 34.4662 67.4044 34.5238 67.4147 34.58C68.3073 35.9275 69.5717 36.987 71.0547 37.63C71.5747 37.8566 72.1047 38.0666 72.6447 38.26C74.6364 38.9693 76.7643 39.2122 78.8647 38.97L82.5947 38.58C83.1047 38.58 83.5947 38.51 84.1247 38.48C84.2647 38.48 84.3847 38.21 84.3147 38.07C84.1147 37.66 83.9247 37.25 83.6947 36.85C83.5769 36.5913 83.4027 36.3624 83.1847 36.18C82.1847 35.49 81.3147 34.53 80.1847 33.91C79.7447 33.66 79.3447 33.33 78.9047 33.06C77.9484 32.4399 76.8585 32.056 75.7247 31.94C73.9696 31.7717 72.2036 31.7483 70.4447 31.87C70.104 31.8921 69.7677 31.9594 69.4447 32.07C68.9163 32.2061 68.4156 32.4328 67.9647 32.74C68.2548 33.0184 68.6261 33.1971 69.0247 33.25C71.1651 33.8409 73.2094 34.7368 75.0947 35.91C76.195 36.4995 77.1752 37.2897 77.9847 38.24C77.8947 38.24 77.7847 38.37 77.7147 38.35C76.1547 37.83 74.7147 37.09 73.1547 36.48L73.0547 36.4C72.1876 35.8578 71.2337 35.4688 70.2347 35.25C69.7457 35.1068 69.2756 34.9053 68.8347 34.65C68.5849 34.5158 68.3278 34.3957 68.0647 34.29C67.9576 34.2384 67.8369 34.2223 67.7201 34.2439C67.6032 34.2654 67.4963 34.3236 67.4147 34.41ZM101.945 23.41C102.015 23.5558 102.106 23.6906 102.215 23.81C102.502 23.9981 102.803 24.1652 103.115 24.31L106.055 25.72C106.197 25.8022 106.329 25.9031 106.445 26.02C106.465 26.0369 106.48 26.0596 106.487 26.0851C106.494 26.1106 106.493 26.1377 106.484 26.1627C106.476 26.1877 106.46 26.2095 106.438 26.2251C106.417 26.2407 106.391 26.2494 106.365 26.25C105.802 26.2092 105.248 26.081 104.725 25.87C103.858 25.5876 102.977 25.3539 102.085 25.17C101.935 25.17 101.695 25.17 101.625 25.24C101.591 25.3136 101.573 25.3938 101.573 25.475C101.573 25.5561 101.591 25.6363 101.625 25.71C102.059 26.5223 102.728 27.1846 103.545 27.61C105.057 28.4127 106.705 28.928 108.405 29.13C108.805 29.13 109.195 29.27 109.585 29.34L110.585 29.48C110.613 29.4824 110.641 29.4782 110.667 29.4678C110.693 29.4573 110.716 29.441 110.735 29.42C110.735 29.33 110.795 29.18 110.735 29.13C110.247 28.4961 109.835 27.8082 109.505 27.08C109.329 26.7365 109.136 26.4027 108.925 26.08C108.486 25.3445 107.892 24.7133 107.185 24.23C106.636 23.8151 106 23.5312 105.325 23.4C104.45 23.1389 103.536 23.0306 102.625 23.08C102.363 23.1226 102.123 23.2531 101.945 23.45V23.41ZM114.275 14.59C114.655 14.6971 115.06 14.6724 115.425 14.52C116.909 13.935 118.306 13.1475 119.575 12.18C119.716 12.0835 119.838 11.9614 119.935 11.82C120.468 11.0784 120.917 10.2802 121.275 9.43998C121.551 8.80824 121.704 8.12929 121.725 7.43998C121.725 7.28998 121.515 7.09998 121.385 7.14998L120.765 7.40998C119.765 7.85998 118.835 8.40998 117.825 8.75998C115.796 9.53198 113.987 10.7885 112.555 12.42C112.277 12.7802 112.052 13.1774 111.885 13.6C111.852 13.6498 111.832 13.7061 111.824 13.765C111.816 13.8238 111.821 13.8836 111.84 13.9401C111.858 13.9966 111.888 14.0483 111.929 14.0915C111.97 14.1347 112.019 14.1684 112.075 14.19C112.635 13.86 113.245 13.56 113.805 13.19C115.055 12.3 116.435 11.62 117.805 10.85C117.956 10.7665 118.113 10.6931 118.275 10.63C118.379 10.5853 118.492 10.5648 118.605 10.57C118.705 10.57 118.855 10.57 118.895 10.68C118.907 10.732 118.908 10.7862 118.896 10.8384C118.883 10.8905 118.859 10.939 118.825 10.98C117.725 11.87 116.575 12.72 115.405 13.52C114.931 13.7767 114.54 14.1613 114.275 14.63V14.59ZM144.835 24C144.835 23.89 144.835 23.81 144.835 23.78C144.315 23.27 143.835 22.73 143.265 22.26C142.748 21.8164 142.176 21.4401 141.565 21.14C140.256 20.5842 138.846 20.3082 137.425 20.33C137.37 20.3348 137.318 20.3557 137.275 20.39C137.223 20.4051 137.177 20.4367 137.145 20.48C137.065 20.61 137.095 20.72 137.215 20.76L138.345 21.12L140.615 21.84C140.745 21.84 140.805 21.96 140.775 22.16C139.729 22.319 138.66 22.23 137.655 21.9C136.891 21.6823 136.099 21.5778 135.305 21.59C135.259 21.6058 135.216 21.6308 135.18 21.6635C135.144 21.6961 135.115 21.7358 135.095 21.78C135.085 21.8337 135.086 21.8889 135.098 21.9422C135.11 21.9955 135.132 22.0458 135.165 22.09C135.545 22.43 135.945 22.75 136.335 23.09C137.293 23.9122 138.522 24.3504 139.785 24.32C141.265 24.32 142.735 24.26 144.205 24.14C144.417 24.1046 144.627 24.0579 144.835 24Z" fill="#587307"></path><path d="M16.3547 98.8101C16.4736 98.7263 16.5727 98.6176 16.6453 98.4915C16.7178 98.3654 16.762 98.225 16.7747 98.0801C17.1947 96.0101 17.6447 93.9501 17.9447 91.8601C18.1247 90.6201 18.4047 89.3901 18.6147 88.1601C19.1847 84.9001 19.7247 81.6401 20.2947 78.3801C20.5147 77.0901 20.7947 75.8101 21.0547 74.5301C21.3747 73.0201 21.6847 71.5301 22.0547 70.0201C22.5047 68.1301 22.9647 66.2501 23.4547 64.3801C24.0447 62.1101 24.4547 59.8001 24.8247 57.5001C25.1947 55.2001 25.5747 53.1201 25.9547 50.9301C26.2147 49.4101 26.5047 47.9301 26.7647 46.3801C27.2047 43.7401 27.8247 41.1401 28.4347 38.5301C28.9447 36.3601 29.6047 34.2401 30.2247 32.1101C30.3672 31.615 30.5443 31.1304 30.7547 30.6601C30.8423 30.4463 30.9782 30.2557 31.1516 30.103C31.3251 29.9504 31.5315 29.8399 31.7547 29.7801C32.0835 29.69 32.4174 29.6199 32.7547 29.5701C33.0397 29.5404 33.3262 29.6111 33.5647 29.7701C33.6698 29.8149 33.7602 29.8884 33.8257 29.9821C33.8911 30.0758 33.9289 30.186 33.9347 30.3001C33.9539 30.6332 33.9539 30.9671 33.9347 31.3001C33.8449 31.627 33.788 31.962 33.7647 32.3001C33.7969 33.3183 33.6479 34.3341 33.3247 35.3001C33.0747 36.1201 33.0447 36.9701 32.8547 37.8001C32.6647 38.6301 32.5847 39.3701 32.4447 40.1501C32.3547 40.6001 32.2547 41.0401 32.1547 41.4901C32.0656 41.7005 32.0083 41.9229 31.9847 42.1501C31.9101 43.0582 31.7288 43.9544 31.4447 44.8201C31.3391 45.2605 31.2689 45.7086 31.2347 46.1601C31.1601 47.1747 30.9859 48.1796 30.7147 49.1601C30.3821 50.3107 30.115 51.4793 29.9147 52.6601C29.6647 54.1801 29.2147 55.6601 28.8247 57.1401C28.7479 57.3538 28.6942 57.575 28.6647 57.8001C28.6283 58.3123 28.4995 58.8137 28.2847 59.2801C27.9184 60.3573 27.667 61.4701 27.5347 62.6001C27.3347 63.6601 27.2147 64.7401 27.0547 65.8101C26.8547 67.1701 26.6647 68.5201 26.4547 69.8701C26.4007 70.265 26.3205 70.6559 26.2147 71.0401C25.4547 73.6801 25.0147 76.3801 24.4247 79.0401C24.0447 80.7701 23.6047 82.4801 23.3147 84.2201C23.2347 84.6701 23.1247 85.1101 23.0447 85.5601C22.6547 87.8101 22.2347 90.0501 21.8747 92.3001C21.7024 93.4262 21.4654 94.5414 21.1647 95.6401C20.9695 96.4714 20.8192 97.3126 20.7147 98.1601C20.5715 99.2913 20.3475 100.411 20.0447 101.51C19.8647 102.11 19.7847 102.73 19.6447 103.35C19.5714 103.683 19.4914 104.017 19.4047 104.35C19.3669 104.518 19.2938 104.677 19.1904 104.814C19.087 104.952 18.9555 105.067 18.8047 105.15C18.6564 105.233 18.5391 105.361 18.4705 105.516C18.402 105.672 18.3859 105.845 18.4247 106.01C18.4334 106.182 18.3975 106.354 18.3204 106.508C18.2433 106.662 18.1277 106.794 17.9847 106.89C17.2268 107.495 16.4208 108.037 15.5747 108.51L15.2547 108.64C15.1047 108.7 14.6847 108.57 14.6647 108.42C14.5165 107.821 14.2589 107.255 13.9047 106.75C13.757 106.434 13.6624 106.097 13.6247 105.75C13.3047 104.19 12.9047 102.64 12.6247 101.06C12.0747 97.6901 11.3547 94.3401 10.6247 91.0001C10.2547 89.2701 9.97469 87.5301 9.72469 85.7801C9.50469 84.2601 9.19469 82.7801 8.90469 81.2401C8.45469 79.0001 7.90469 76.7801 7.56469 74.5301C7.22469 72.5301 6.76469 70.5301 6.38469 68.5301C6.00469 66.5301 5.63469 64.3701 5.25469 62.3001C5.14469 61.6801 5.02469 61.0701 4.89469 60.4501C4.12469 56.4501 3.33469 52.5101 2.57469 48.5301C1.77469 44.4235 0.994687 40.2935 0.234688 36.1401C0.129616 35.3508 0.0695186 34.5562 0.0546875 33.7601C0.06154 33.6471 0.102476 33.5389 0.172099 33.4496C0.241722 33.3603 0.336762 33.2943 0.444687 33.2601C0.884687 33.1501 1.33469 33.0401 1.77469 32.9601C2.05633 32.9005 2.34998 32.9433 2.60291 33.0808C2.85585 33.2182 3.05148 33.4414 3.15469 33.7101C3.4285 34.4596 3.65889 35.2242 3.84469 36.0001C4.09469 37.0001 4.36469 38.1001 4.63469 39.1501C4.86703 40.09 5.05061 41.0413 5.18469 42.0001C5.51469 44.0901 6.02469 46.1301 6.45469 48.2001C6.67469 49.2601 6.82469 50.3301 6.97469 51.4101C7.08469 52.1401 7.15469 52.8801 7.19469 53.6201C7.2745 54.7026 7.47576 55.7726 7.79469 56.8101C8.00469 57.5701 8.11469 58.3701 8.25469 59.1501C8.42469 60.1501 8.57469 61.0701 8.73469 62.0201C8.72907 62.0766 8.72907 62.1336 8.73469 62.1901C9.02469 63.4101 9.33469 64.6301 9.61469 65.8501C9.89469 67.0701 9.99469 68.2101 10.3547 69.3601C10.5248 69.9642 10.6551 70.5789 10.7447 71.2001C11.0847 73.4001 11.4047 75.6001 11.7447 77.8001C11.8547 78.5301 12.0247 79.2501 12.1847 79.9801C12.2847 80.4801 12.4447 80.9801 12.5347 81.4701C12.7147 82.4701 12.8847 83.3801 13.1447 84.3101C13.2511 84.6937 13.3279 85.0848 13.3747 85.4801C13.6247 87.2401 13.9747 88.9601 14.3747 90.6801C14.7247 92.1201 14.9347 93.6001 15.1847 95.0601C15.4348 96.3495 15.8272 97.6072 16.3547 98.8101ZM32.0547 31.3001L32.1347 31.3601V31.2701L32.0547 31.3001Z" fill="#587307"></path><path d="M68.675 109.33C67.9021 109.945 66.9521 110.296 65.965 110.33C64.9959 110.39 64.024 110.39 63.055 110.33C62.3084 110.262 61.6053 109.949 61.055 109.44C60.7384 109.195 60.4559 108.91 60.215 108.59C60.06 108.351 59.8333 108.167 59.5675 108.065C59.3017 107.962 59.0102 107.947 58.735 108.02C57.6529 108.066 56.5795 108.234 55.535 108.52C55.4263 108.544 55.3136 108.544 55.205 108.52C54.4578 108.452 53.7121 108.666 53.115 109.12C52.6728 109.373 52.2114 109.59 51.735 109.77C50.7068 110.115 49.718 110.567 48.785 111.12C48.4488 111.337 48.064 111.468 47.665 111.5C46.5272 111.596 45.4056 111.831 44.325 112.2C43.945 112.3 43.565 112.41 43.195 112.53C43.195 112.53 43.195 112.63 43.195 112.68C43.195 112.73 43.195 112.82 43.195 112.83L45.055 113.7C45.8782 113.291 46.7527 112.995 47.655 112.82C49.0201 112.604 50.4163 112.911 51.565 113.68C52.0678 114.036 52.4987 114.484 52.835 115C53.0177 115.355 53.3083 115.642 53.665 115.82C53.8702 115.925 54.0328 116.099 54.125 116.31C54.495 117.14 54.835 117.98 55.185 118.82C55.196 118.861 55.1963 118.904 55.186 118.945C55.1757 118.987 55.1551 119.025 55.1261 119.056C55.097 119.087 55.0606 119.11 55.0202 119.123C54.9797 119.136 54.9366 119.138 54.895 119.13C54.5567 119.054 54.2025 119.1 53.895 119.26C53.2199 119.569 52.5121 119.801 51.785 119.95C50.9551 120.203 50.0815 120.279 49.2204 120.174C48.3594 120.069 47.5298 119.785 46.785 119.34C46.383 119.118 45.9956 118.871 45.625 118.6C44.9534 118.153 44.4778 117.466 44.295 116.68C44.1279 116.137 44.0042 115.582 43.925 115.02C43.9178 114.776 43.8277 114.542 43.6695 114.357C43.5113 114.171 43.2945 114.046 43.055 114C42.165 113.8 41.275 113.6 40.365 113.47C39.5778 113.337 38.7709 113.385 38.005 113.61C36.5971 114.068 35.1339 114.334 33.655 114.4C32.5899 114.565 31.5124 114.635 30.435 114.61C28.4491 114.761 26.5123 115.301 24.735 116.2C24.259 116.389 23.7978 116.613 23.355 116.87C22.3835 117.344 21.5165 118.007 20.805 118.82C20.6568 118.995 20.4927 119.156 20.315 119.3C20.2232 119.366 20.113 119.401 20 119.401C19.8869 119.401 19.7768 119.366 19.685 119.3C19.5814 119.253 19.4934 119.177 19.4314 119.081C19.3695 118.985 19.336 118.874 19.335 118.76C19.3486 118.534 19.4064 118.314 19.505 118.11C19.8949 117.483 20.4256 116.956 21.055 116.57C21.835 116.1 22.635 115.67 23.435 115.22C25.3272 114.148 27.4431 113.532 29.615 113.42C31.2171 113.268 32.77 112.785 34.175 112C35.1752 111.46 36.1375 110.852 37.055 110.18C37.4221 109.902 37.6888 109.513 37.815 109.07C38.0867 108.317 38.2221 107.521 38.215 106.72C38.215 106.15 38.215 105.58 38.215 105.01C38.1872 104.094 38.3609 103.183 38.7237 102.342C39.0866 101.5 39.6298 100.749 40.315 100.14C40.9869 99.4414 41.7711 98.86 42.635 98.4201C42.9407 98.265 43.2348 98.0878 43.515 97.8901C43.5949 97.8292 43.6861 97.7847 43.7833 97.7592C43.8805 97.7338 43.9818 97.7279 44.0813 97.7418C44.1808 97.7558 44.2765 97.7893 44.363 97.8405C44.4494 97.8917 44.5249 97.9595 44.585 98.0401C44.716 98.1559 44.8244 98.2949 44.905 98.4501C45.3693 99.3671 45.6512 100.366 45.735 101.39C45.7774 102.36 45.6933 103.332 45.485 104.28C45.4269 104.912 45.1794 105.511 44.775 106C44.6045 106.228 44.4789 106.486 44.405 106.76C44.2025 107.3 43.8886 107.791 43.4837 108.201C43.0788 108.611 42.5919 108.931 42.055 109.14C41.6068 109.389 41.1201 109.562 40.615 109.65C40.395 109.65 40.185 109.8 39.955 109.84C39.3345 109.942 38.7689 110.257 38.355 110.73C37.9036 111.247 37.3818 111.698 36.805 112.07C36.805 112.07 36.805 112.26 36.805 112.35C36.805 112.44 36.905 112.43 36.945 112.42C37.165 112.42 37.385 112.3 37.605 112.24C37.8673 112.145 38.1387 112.078 38.415 112.04C40.7917 111.831 43.1387 111.365 45.415 110.65L45.745 110.56C47.5225 109.79 49.2262 108.859 50.835 107.78C51.655 107.16 52.255 106.31 53.035 105.64C53.1181 105.561 53.1821 105.464 53.222 105.357C53.2619 105.249 53.2766 105.134 53.265 105.02C53.265 104.68 53.165 104.34 53.135 104.02C53.0323 103.168 53.1044 102.303 53.3469 101.48C53.5893 100.656 53.9969 99.8909 54.545 99.2301C55.3353 98.255 56.3021 97.4374 57.395 96.8201C57.5428 96.7318 57.7006 96.6613 57.865 96.6101C58.0548 96.5421 58.2597 96.5276 58.4572 96.5681C58.6547 96.6087 58.8373 96.7028 58.985 96.8401C59.195 97.0301 59.325 97.3301 59.565 97.4601C59.8744 97.6155 60.1128 97.8831 60.2318 98.2083C60.3507 98.5334 60.3411 98.8917 60.205 99.2101C60.145 99.4901 60.115 99.7701 60.055 100.05C59.9354 100.73 59.6541 101.371 59.235 101.92C59.095 102.09 58.955 102.27 58.825 102.46C58.1112 103.498 57.1392 104.332 56.005 104.88C55.755 105.01 55.505 105.16 55.245 105.27C54.3343 105.719 53.5658 106.411 53.025 107.27C53.025 107.27 53.025 107.42 53.025 107.43C53.025 107.44 53.205 107.56 53.295 107.54C53.4661 107.521 53.6322 107.47 53.785 107.39C54.395 107.08 55.005 106.78 55.595 106.39C56.595 105.77 57.595 105.14 58.595 104.48C59.823 103.648 61.1097 102.906 62.445 102.26C62.755 102.11 63.045 101.94 63.265 101.82C63.635 101.21 63.955 100.67 64.265 100.15C65.0297 99.0618 66.0632 98.1902 67.265 97.6201C68.2242 97.1072 69.2879 96.8199 70.375 96.7801C71.0412 96.7467 71.7087 96.7467 72.375 96.7801C72.9415 96.8504 73.4777 97.0753 73.925 97.4301C74.225 97.6401 74.235 98.1501 74.615 98.3601C74.615 98.3601 74.615 98.4601 74.615 98.5101C74.615 98.5601 74.615 98.6401 74.615 98.6701C73.0951 100.303 71.2665 101.618 69.235 102.54C68.554 102.837 67.8264 103.013 67.085 103.06C66.0671 103.21 65.0328 103.21 64.015 103.06C63.7908 103.011 63.5589 103.011 63.3347 103.06C63.1105 103.108 62.8992 103.204 62.715 103.34C61.395 104.23 59.935 104.91 58.715 105.91C58.5358 106.046 58.3745 106.204 58.235 106.38C58.2233 106.428 58.2226 106.478 58.233 106.527C58.2434 106.575 58.2646 106.621 58.295 106.66C58.6849 106.74 59.0788 106.8 59.475 106.84C59.6188 106.85 59.7629 106.825 59.8952 106.768C60.0275 106.71 60.144 106.622 60.235 106.51C60.6605 106.051 61.1369 105.642 61.655 105.29C61.879 105.114 62.1382 104.988 62.415 104.92C63.3069 104.72 64.2229 104.65 65.135 104.71C65.5674 104.713 65.9948 104.803 66.3917 104.975C66.7886 105.147 67.1468 105.397 67.445 105.71C67.6369 105.917 67.8046 106.145 67.945 106.39C68.0536 106.591 68.1504 106.798 68.235 107.01C68.438 107.284 68.5966 107.587 68.705 107.91C68.7467 108.383 68.7366 108.859 68.675 109.33ZM49.875 119.08C51.2402 118.97 52.585 118.681 53.875 118.22C53.9129 118.203 53.947 118.178 53.9752 118.148C54.0033 118.117 54.0251 118.081 54.0391 118.042C54.0531 118.003 54.0591 117.961 54.0566 117.92C54.0542 117.878 54.0434 117.837 54.025 117.8C53.8771 117.436 53.6711 117.098 53.415 116.8C52.606 116.088 51.7435 115.44 50.835 114.86C50.3539 114.55 49.8089 114.353 49.2408 114.284C48.6728 114.215 48.0964 114.275 47.555 114.46C47.5036 114.476 47.4574 114.506 47.4209 114.545C47.3843 114.585 47.3588 114.633 47.3467 114.686C47.3345 114.738 47.3363 114.793 47.3518 114.845C47.3673 114.896 47.3959 114.943 47.435 114.98C47.8128 115.202 48.0918 115.56 48.215 115.98C48.305 116.26 48.655 116.48 48.905 116.71C49.155 116.94 49.605 117.09 49.805 117.46C49.8312 117.507 49.8514 117.558 49.865 117.61C49.765 117.67 49.645 117.77 49.575 117.74C49.1696 117.611 48.7969 117.396 48.4827 117.11C48.1685 116.823 47.9202 116.472 47.755 116.08C47.7284 116 47.684 115.927 47.6251 115.866C47.5662 115.806 47.4944 115.759 47.415 115.73C46.825 115.51 46.245 115.32 45.655 115.12C45.655 115.12 45.555 115.12 45.505 115.12C45.455 115.12 45.335 115.26 45.365 115.4C45.5087 116.011 45.8006 116.578 46.215 117.05C46.9516 117.95 47.9408 118.608 49.055 118.94C49.3255 119.002 49.5993 119.049 49.875 119.08ZM39.625 107.7C39.775 107.7 39.905 107.7 39.965 107.7C40.365 107.38 40.755 107.047 41.135 106.7C41.2583 106.578 41.3479 106.427 41.395 106.26C41.655 105.39 41.905 104.52 42.155 103.65C42.345 102.99 42.515 102.33 42.715 101.65C42.7695 101.487 42.8621 101.34 42.985 101.22C43.025 101.187 43.0715 101.163 43.1215 101.149C43.1714 101.136 43.2237 101.132 43.275 101.14C43.3287 101.153 43.3793 101.177 43.4239 101.209C43.4685 101.242 43.5063 101.283 43.535 101.33C43.6156 101.484 43.6577 101.656 43.6577 101.83C43.6577 102.004 43.6156 102.176 43.535 102.33C43.2027 103.114 42.9351 103.923 42.735 104.75C42.6176 105.132 42.453 105.499 42.245 105.84C42.005 106.29 41.745 106.73 41.515 107.18C41.476 107.287 41.476 107.404 41.515 107.51C41.5361 107.555 41.5682 107.595 41.6084 107.624C41.6486 107.654 41.6955 107.673 41.745 107.68C41.8852 107.658 42.0175 107.6 42.1294 107.513C42.2413 107.425 42.3293 107.311 42.385 107.18C43.3547 105.696 43.9705 104.01 44.185 102.25C44.3303 101.301 44.2055 100.331 43.825 99.4501C43.7134 99.4081 43.5928 99.3962 43.4752 99.4155C43.3577 99.4348 43.2472 99.4847 43.155 99.5601C42.515 100.13 41.875 100.69 41.255 101.28C40.3757 102.116 39.8527 103.258 39.795 104.47C39.795 104.98 39.795 105.47 39.795 106C39.795 106.53 39.655 107.15 39.625 107.7ZM62.435 108.19C62.205 108.19 61.975 108.19 61.755 108.19C61.7265 108.194 61.6993 108.204 61.6752 108.22C61.651 108.235 61.6305 108.256 61.615 108.28C61.615 108.38 61.615 108.53 61.615 108.56C62.6225 109.234 63.8503 109.495 65.045 109.29C65.895 109.22 66.735 109.04 67.575 108.9C67.705 108.9 67.895 108.65 67.875 108.54C67.8594 108.076 67.6661 107.636 67.335 107.31C66.9054 106.943 66.4051 106.667 65.865 106.5C64.6959 106.207 63.4658 106.274 62.335 106.69C62.235 106.69 62.155 106.82 62.055 106.88C61.955 106.94 61.895 107.04 61.945 107.15C61.995 107.26 61.945 107.26 62.035 107.28L62.815 107.62C62.9246 107.655 63.0248 107.715 63.1079 107.795C63.1911 107.875 63.255 107.972 63.295 108.08C63.295 108.21 63.095 108.29 62.745 108.27L62.435 108.19ZM73.545 98.4001C73.455 98.3301 73.385 98.2201 73.295 98.2101C72.0243 97.8764 70.6846 97.9146 69.435 98.3201C69.065 98.4601 68.675 98.5301 68.295 98.6501C67.4838 98.9099 66.7373 99.3394 66.105 99.9101C65.9406 100.066 65.7991 100.244 65.685 100.44C65.685 100.51 65.685 100.64 65.685 100.74C65.685 100.84 65.785 100.81 65.835 100.81C66.5431 100.615 67.2379 100.375 67.915 100.09C68.345 99.9401 68.765 99.7801 69.205 99.6701C69.4299 99.6301 69.6601 99.6301 69.885 99.6701C69.9318 99.6852 69.9743 99.7112 70.0091 99.7459C70.0439 99.7807 70.0699 99.8233 70.085 99.8701C70.0887 99.9239 70.0787 99.9778 70.056 100.027C70.0332 100.076 69.9985 100.118 69.955 100.15C69.245 100.49 68.515 100.8 67.795 101.15C67.6023 101.265 67.4214 101.399 67.255 101.55C67.2452 101.57 67.2402 101.593 67.2402 101.615C67.2402 101.638 67.2452 101.66 67.255 101.68C67.2905 101.725 67.3397 101.756 67.395 101.77C67.7388 101.813 68.0876 101.75 68.395 101.59C69.315 101.15 70.255 100.74 71.135 100.23C72.015 99.7201 72.725 99.1401 73.505 98.5901C73.535 98.5401 73.535 98.4501 73.545 98.4001ZM55.925 103C56.125 103 56.325 103.14 56.415 103.08C57.3265 102.312 58.1334 101.428 58.815 100.45C59.1618 99.9882 59.3288 99.416 59.285 98.8401C59.2778 98.6713 59.2223 98.5082 59.125 98.3701C58.9941 98.1841 58.8432 98.0131 58.675 97.8601C58.5958 97.7782 58.4907 97.7264 58.3775 97.7137C58.2644 97.7009 58.1503 97.7279 58.055 97.7901C57.3537 98.2714 56.6855 98.7993 56.055 99.3701C55.1618 100.174 54.5751 101.262 54.395 102.45C54.395 102.51 54.505 102.61 54.575 102.67C54.5989 102.685 54.6266 102.693 54.655 102.693C54.6833 102.693 54.711 102.685 54.735 102.67C55.295 101.95 55.835 101.22 56.385 100.5C56.4895 100.367 56.6184 100.255 56.765 100.17C56.835 100.17 56.975 100.17 57.075 100.24C57.0995 100.254 57.121 100.273 57.1382 100.295C57.1554 100.317 57.1679 100.343 57.175 100.37C57.1726 100.535 57.1387 100.698 57.075 100.85C56.715 101.5 56.335 102.19 55.925 103Z" fill="#587307"></path><path d="M54.6446 58.0002C54.2784 59.0621 54.0171 60.1573 53.8646 61.2702C53.8086 61.6107 53.7215 61.9454 53.6046 62.2702C53.4426 62.6356 53.3219 63.018 53.2446 63.4102C53.1046 65.2402 52.4346 66.9602 52.2446 68.7602C52.1546 69.5002 52.0246 70.2302 51.9046 70.9602C51.731 71.9121 51.6175 72.874 51.5646 73.8402C51.4911 74.7463 51.3676 75.6477 51.1946 76.5402C51.0509 77.1974 50.9738 77.8675 50.9646 78.5402C50.9791 78.7666 50.9791 78.9937 50.9646 79.2202C50.7446 81.1402 50.4646 83.0602 50.0646 84.9502C49.8846 85.7902 49.7446 86.6302 49.6046 87.4702C49.6133 87.6483 49.6504 87.8238 49.7146 87.9902C50.0746 87.8702 50.4046 87.7902 50.7146 87.6602C51.8646 87.1702 53.0046 86.6602 54.1646 86.1802C54.6846 85.9602 55.2346 85.8102 55.7746 85.6302C55.9405 85.5886 56.0881 85.4936 56.1947 85.3599C56.3013 85.2262 56.361 85.0611 56.3646 84.8902C56.4646 83.6402 56.5846 82.3902 56.6446 81.1402C56.7545 79.4308 56.9548 77.7284 57.2446 76.0402C57.3593 75.1952 57.4095 74.3427 57.3946 73.4902C57.3799 73.4087 57.3342 73.3361 57.2671 73.2876C57.1999 73.2391 57.1166 73.2185 57.0346 73.2302C56.7646 73.3202 56.4946 73.4302 56.2246 73.5002C55.8404 73.606 55.4495 73.6862 55.0546 73.7402C54.5846 73.8002 54.3246 73.5502 54.2946 73.0602V72.8902C54.1346 71.0202 54.4846 71.0802 55.8746 70.5902C56.8746 70.2302 57.9846 70.0702 59.0146 69.7702C59.1837 69.7368 59.3592 69.7635 59.5107 69.8456C59.6622 69.9278 59.7803 70.0602 59.8446 70.2202C60.0341 70.698 60.1357 71.2062 60.1446 71.7202C60.2164 72.9741 60.1829 74.2318 60.0446 75.4802C59.9444 76.1418 59.9109 76.8118 59.9446 77.4802C59.9446 77.7102 60.0046 78.0202 59.8846 78.1502C59.4046 78.6502 59.6246 79.2402 59.6446 79.7802C59.6757 80.45 59.6287 81.1212 59.5046 81.7802C59.2946 82.9502 59.1546 84.1402 59.0146 85.3302C59.0037 85.5543 59.0171 85.7789 59.0546 86.0002C59.0952 86.161 59.0952 86.3294 59.0546 86.4902C58.8588 86.9601 58.6282 87.4147 58.3646 87.8502C58.2923 88.0075 58.1649 88.1329 58.0065 88.2029C57.8481 88.2729 57.6696 88.2826 57.5046 88.2302C57.3775 88.166 57.237 88.1326 57.0946 88.1326C56.9522 88.1326 56.8118 88.166 56.6846 88.2302C56.5346 88.3102 56.3646 88.3502 56.2246 88.4402C54.8246 89.3102 53.3246 90.0202 51.9146 90.8702C51.1866 91.3191 50.4355 91.7297 49.6646 92.1002C48.7575 92.4496 47.784 92.5931 46.8146 92.5202C46.7049 92.4946 46.6034 92.4418 46.5195 92.3667C46.4356 92.2915 46.372 92.1964 46.3346 92.0902C46.2689 91.8726 46.2319 91.6473 46.2246 91.4202C46.2846 90.7402 46.3546 90.0602 46.4546 89.4202C46.6246 88.3002 46.8246 87.1702 47.0046 86.0502C47.0749 85.6563 47.125 85.2591 47.1546 84.8602C47.2546 82.5202 47.6546 80.2202 47.8346 77.8602C47.9846 75.8602 48.3346 73.8602 48.6046 71.9302C48.7646 70.6902 48.9546 69.4502 49.1246 68.2102C49.4146 66.1202 49.7346 64.0302 50.1946 61.9702C50.5446 60.3602 50.8446 58.7302 51.1946 57.1102C51.2646 56.7802 51.3546 56.4502 51.4146 56.1102C51.4168 55.9261 51.4596 55.7447 51.54 55.5791C51.6204 55.4134 51.7364 55.2676 51.8797 55.152C52.023 55.0364 52.1901 54.9539 52.369 54.9103C52.5479 54.8668 52.7342 54.8633 52.9146 54.9002C53.6067 54.8755 54.2867 54.7122 54.9146 54.4202C56.5771 53.8133 58.2773 53.3156 60.0046 52.9302C60.169 52.8862 60.336 52.8528 60.5046 52.8302C61.1646 52.7202 61.5046 52.9702 61.5046 53.6402C61.5046 54.0402 61.5046 54.4402 61.5046 54.8402C61.5071 55.1281 61.4238 55.4103 61.2653 55.6507C61.1068 55.8912 60.8802 56.079 60.6146 56.1902C59.8113 56.5983 58.9465 56.872 58.0546 57.0002C56.8977 57.2601 55.7587 57.5942 54.6446 58.0002Z" fill="#587307"></path><path d="M39.5143 96.1301C38.7443 96.6101 38.0343 97.1301 37.3043 97.5001C36.9465 97.6759 36.5753 97.823 36.1943 97.9401C35.9785 98.0075 35.7706 98.0981 35.5743 98.2101C34.248 98.9891 32.8829 99.7 31.4843 100.34C30.9782 100.599 30.4449 100.8 29.8943 100.94C29.5644 100.999 29.2288 101.019 28.8943 101C28.7867 100.97 28.6875 100.916 28.6042 100.841C28.521 100.766 28.456 100.674 28.4143 100.57C28.3059 100.01 28.2823 99.4371 28.3443 98.8701C28.4543 98.0201 28.5143 97.1701 28.6243 96.3201C28.7843 95.1301 28.9643 93.9501 29.1343 92.7701C29.1674 92.6016 29.1908 92.4313 29.2043 92.2601C29.2677 90.9495 29.4315 89.6457 29.6943 88.3601C29.9643 86.4401 30.1543 84.5201 30.3143 82.5901C30.3143 82.1301 30.4343 81.6801 30.4843 81.2301C30.5834 80.7265 30.6236 80.2131 30.6043 79.7001C30.5684 78.9076 30.639 78.1139 30.8143 77.3401C31.0043 75.9201 31.1343 74.5101 31.3043 73.0901C31.3843 72.4101 31.4643 71.7301 31.5743 71.0901C31.9143 69.0901 32.2743 67.0901 32.5743 65.0201C32.8243 63.5601 33.0443 62.1001 33.2743 60.6401C33.3843 59.9701 33.5243 59.8201 34.2743 59.6401C34.6273 59.6096 34.969 59.5002 35.2743 59.3201C35.6073 59.1053 35.9767 58.9528 36.3643 58.8701C37.2943 58.5901 38.2243 58.3201 39.1343 57.9901C40.1114 57.6724 41.1156 57.4447 42.1343 57.3101C42.8682 57.2247 43.5962 57.0945 44.3143 56.9201C44.4796 56.8906 44.6489 56.8906 44.8143 56.9201C44.9247 56.9446 45.0246 57.0032 45.1 57.0875C45.1753 57.1718 45.2223 57.2777 45.2343 57.3901C45.1643 58.0101 45.0843 58.6301 45.0043 59.3001C44.5965 59.6827 44.147 60.0181 43.6643 60.3001C43.4728 60.4239 43.2638 60.5183 43.0443 60.5801C41.9043 60.7201 40.8743 61.2801 39.7543 61.4801C38.6409 61.7363 37.5814 62.1865 36.6243 62.8101C36.4291 62.9281 36.2889 63.1187 36.2343 63.3401C36.1143 64.0701 35.8843 64.7701 35.8243 65.5201C35.7143 66.7601 35.5043 68.0001 35.3443 69.2401L35.1643 70.7601C35.1388 71.3854 35.0619 72.0075 34.9343 72.6201C34.7547 73.4023 34.6442 74.1987 34.6043 75.0001C34.6043 75.6201 34.8043 75.8001 35.4443 75.6501C35.8343 75.5601 36.2143 75.4601 36.6043 75.3501C37.303 75.0996 38.0422 74.9809 38.7843 75.0001C39.0095 74.9767 39.2311 74.9264 39.4443 74.8501C40.0743 74.7401 40.4443 75.0001 40.4443 75.6801C40.442 76.1227 40.4018 76.5644 40.3243 77.0001C40.2946 77.1703 40.2234 77.3305 40.117 77.4666C40.0106 77.6026 39.8723 77.7103 39.7143 77.7801C39.2984 77.9647 38.8708 78.1217 38.4343 78.2501C37.1834 78.6444 35.9716 79.1532 34.8143 79.7701C34.563 79.9126 34.3224 80.073 34.0943 80.2501C33.9643 80.9301 33.8143 81.6001 33.7143 82.2501C33.4699 83.9994 33.1361 85.735 32.7143 87.4501C32.3632 88.945 32.1126 90.4617 31.9643 91.9901C31.8643 92.8401 31.7543 93.6901 31.6643 94.5301C31.6643 94.8701 31.6643 95.2201 31.6643 95.5301C31.6827 95.612 31.7264 95.686 31.7893 95.7416C31.8521 95.7972 31.9308 95.8317 32.0143 95.8401C32.2343 95.7901 32.4543 95.7601 32.6743 95.7001C34.6814 95.0613 36.6288 94.2482 38.4943 93.2701C38.6942 93.1626 38.9014 93.069 39.1143 92.9901C39.2843 92.9691 39.456 93.013 39.5951 93.1131C39.7342 93.2133 39.8303 93.3622 39.8643 93.5301C39.8942 93.7525 39.8942 93.9778 39.8643 94.2001C39.7643 94.8601 39.6443 95.4101 39.5143 96.1301Z" fill="#587307"></path><path d="M12.3648 38.4601L11.1948 38.0001C10.7748 37.8301 10.3448 37.6801 9.93477 37.4801C8.75999 36.8969 7.79805 35.9595 7.18477 34.8001C6.30165 33.2603 5.83949 31.5152 5.84477 29.7401C5.84938 28.658 5.93966 27.578 6.11477 26.5101C6.38477 24.9901 6.60477 23.5101 6.76477 21.9401C6.86334 21.0291 6.73272 20.1078 6.38477 19.2601C6.27477 19.0001 6.65477 18.5701 6.97477 18.5601C7.08611 18.5497 7.19793 18.5742 7.29477 18.6301C8.14477 19.3901 9.00477 20.1401 9.84477 20.9201C11.0254 22.0818 12.075 23.3695 12.9748 24.7601C13.2232 25.1404 13.4374 25.5419 13.6148 25.9601C14.4624 27.8517 14.9377 29.8888 15.0148 31.9601C14.99 32.7568 14.9199 33.5514 14.8048 34.3401C14.7619 34.563 14.6658 34.7723 14.5248 34.9501C14.2348 35.4301 13.9148 35.9501 13.6148 36.3901C13.5158 36.5347 13.447 36.6978 13.4126 36.8697C13.3783 37.0415 13.379 37.2186 13.4148 37.3901C13.4848 37.7201 13.5148 38.0601 13.5648 38.3901C13.5655 38.5037 13.5894 38.616 13.6348 38.7201C14.0121 39.2949 14.2232 39.9629 14.2448 40.6501C14.2448 41.2701 14.4148 41.8901 14.4548 42.5101C14.4948 43.1301 14.4548 43.8801 14.4548 44.5101C14.4548 44.9701 14.4548 45.4301 14.4548 45.8801C14.4548 46.0501 14.4548 46.2201 14.4548 46.3901C14.4548 46.5601 14.5548 46.5701 14.6948 46.5501C14.75 46.5363 14.7992 46.5046 14.8348 46.4601C14.9348 46.2601 15.0448 46.0601 15.1248 45.8501C15.3848 45.1601 15.6548 44.4601 15.8648 43.7601C16.5144 41.8117 17.2825 39.9048 18.1648 38.0501C18.7526 36.7455 19.27 35.4102 19.7148 34.0501C19.6287 33.8925 19.521 33.7478 19.3948 33.6201C18.6894 33.0814 18.1012 32.4045 17.6662 31.6307C17.2312 30.857 16.9585 30.0028 16.8648 29.1201C16.5633 27.4887 16.5463 25.8173 16.8148 24.1801C17.0118 23.4151 17.3147 22.6813 17.7148 22.0001C18.2148 20.9101 18.7148 19.8401 19.3248 18.7901C19.8151 17.7633 20.2524 16.7119 20.6348 15.6401C20.7448 15.3801 20.8148 15.1001 20.9248 14.8401C21.2968 14.0008 21.4713 13.0874 21.4348 12.1701C21.4246 12.0273 21.4666 11.8857 21.5531 11.7717C21.6396 11.6576 21.7646 11.5789 21.9048 11.5501C22.0171 11.5394 22.1304 11.5576 22.2337 11.6032C22.337 11.6487 22.4269 11.7199 22.4948 11.8101C23.4948 13.6101 24.5948 15.3401 25.4948 17.2101C25.9091 18.0862 26.1534 19.0329 26.2148 20.0001C26.2748 21.1301 26.4148 22.2701 26.4848 23.4101C26.6301 25.7479 26.1794 28.0842 25.1748 30.2001C25.0548 30.4601 24.9048 30.7101 24.7948 30.9701C24.2795 32.059 23.4275 32.953 22.3648 33.5201C22.3648 33.5201 22.2248 33.5201 22.2148 33.5201C22.2048 33.5201 22.0848 33.2901 22.1148 33.2101C22.2814 32.4933 22.6253 31.8297 23.1148 31.2801C24.3692 29.4135 25.1012 27.2451 25.2348 25.0001C25.2328 24.7161 25.2161 24.4324 25.1848 24.1501C25.0748 22.8401 24.9448 21.5401 24.8648 20.2301C24.7967 19.261 24.5633 18.3106 24.1748 17.4201C23.749 16.4227 23.223 15.4711 22.6048 14.5801C22.5669 14.5424 22.5215 14.5131 22.4715 14.4942C22.4215 14.4752 22.3681 14.467 22.3148 14.4701C22.2179 14.504 22.1363 14.5714 22.0848 14.6601C22.0184 14.818 21.9681 14.9821 21.9348 15.1501C21.6631 16.1938 21.267 17.201 20.7548 18.1501C20.1248 19.3001 19.7548 20.5501 19.0848 21.7101C18.5776 22.4661 18.2273 23.3162 18.0548 24.2101C17.8298 25.6782 17.8298 27.172 18.0548 28.6401C18.1955 29.3158 18.3724 29.9834 18.5848 30.6401C18.8285 31.346 19.265 31.9695 19.8448 32.4401C19.8963 32.488 19.9598 32.5211 20.0285 32.5358C20.0973 32.5506 20.1688 32.5465 20.2354 32.5239C20.302 32.5014 20.3613 32.4612 20.4069 32.4077C20.4526 32.3543 20.4829 32.2894 20.4948 32.2201C20.6832 31.6222 20.8236 31.0103 20.9148 30.3901C21.1248 28.3401 21.8048 26.3901 22.1648 24.3901C22.2246 24.1699 22.3191 23.9606 22.4448 23.7701C22.4448 23.7701 22.5348 23.7201 22.5948 23.7201C22.6394 23.7221 22.6819 23.7399 22.7148 23.7701C22.7532 23.8759 22.7735 23.9875 22.7748 24.1001C22.7748 24.8401 22.7048 25.5801 22.6148 26.3201C22.4248 28.0201 22.2048 29.7101 21.9948 31.4101C21.8829 32.2576 21.6749 33.0897 21.3748 33.8901C21.1378 34.4693 20.9407 35.064 20.7848 35.6701C20.5981 36.5067 20.2987 37.3141 19.8948 38.0701C18.8948 39.8701 18.1948 41.7901 17.3348 43.6501C17.1614 43.9599 17.0462 44.2988 16.9948 44.6501C16.9031 45.2701 16.7034 45.8691 16.4048 46.4201C15.7148 48.1068 15.1368 49.8373 14.6748 51.6001C14.49 52.3184 14.3663 53.051 14.3048 53.7901C14.1648 54.8601 14.0248 55.9301 13.9248 57.0101C13.7553 58.7757 13.8838 60.5571 14.3048 62.2801C14.5912 63.4427 14.9725 64.5798 15.4448 65.6801C15.9495 66.8899 16.569 68.0485 17.2948 69.1401C17.6456 69.5887 17.8669 70.1247 17.9348 70.6901C17.9551 70.8042 17.9402 70.9219 17.8919 71.0273C17.8437 71.1327 17.7644 71.2209 17.6648 71.2801C17.5546 71.3701 17.4226 71.4295 17.2822 71.4524C17.1418 71.4752 16.9978 71.4606 16.8648 71.4101C16.6066 71.2912 16.3753 71.1211 16.1848 70.9101C15.0573 69.691 14.1897 68.2552 13.6348 66.6901C13.3748 65.8801 13.0948 65.0701 12.7948 64.2701C12.5203 63.5206 12.3324 62.7423 12.2348 61.9501C11.8884 59.8616 11.8211 57.7363 12.0348 55.6301C12.0758 55.208 12.0825 54.7833 12.0548 54.3601C12.0775 52.8933 12.2484 51.4326 12.5648 50.0001C12.7648 48.9301 12.9848 47.8701 13.1248 46.8001C13.4039 44.6996 13.3057 42.5661 12.8348 40.5001C12.6948 39.8401 12.5448 39.2301 12.3648 38.4601ZM7.75477 21.1401C7.71815 22.6937 7.51702 24.2389 7.15477 25.7501C7.00018 26.4062 6.91306 27.0763 6.89477 27.7501C6.89477 28.2601 6.89477 28.7501 6.89477 29.2901C6.76037 30.8316 7.10993 32.3766 7.89477 33.7101C8.01477 33.9001 8.09477 34.1201 8.20477 34.3201C8.6444 35.1943 9.38216 35.8824 10.2848 36.2601C10.5448 36.3601 10.7748 36.5401 11.0448 36.6501C11.2565 36.7265 11.4738 36.7867 11.6948 36.8301C11.8248 36.8301 12.0548 36.6701 12.0348 36.5401C11.9148 35.9201 11.8148 35.3001 11.6748 34.7001C11.4548 33.8101 11.2348 32.9301 10.9748 32.0501C10.7768 31.3376 10.7325 30.5911 10.8448 29.8601C10.8508 29.835 10.862 29.8115 10.8774 29.7909C10.8929 29.7702 10.9124 29.753 10.9348 29.7401C11.0648 29.6901 11.1748 29.7401 11.2148 29.8401C11.8011 31.3225 12.2987 32.8385 12.7048 34.3801C12.7734 34.6041 12.8536 34.8244 12.9448 35.0401C13.1248 34.9001 13.3148 34.8301 13.3848 34.7001C13.6091 34.1746 13.7312 33.6113 13.7448 33.0401C13.7368 31.9014 13.6432 30.7648 13.4648 29.6401C13.1934 27.5959 12.359 25.6674 11.0548 24.0701C10.2246 22.9866 9.26784 22.0063 8.20477 21.1501C8.11477 21.0701 7.91477 21.1401 7.75477 21.1401Z" fill="#587307"></path><path d="M113.605 57.9001C113.685 56.3601 113.725 54.8201 113.835 53.2801C114.025 50.7201 114.265 48.1701 114.625 45.6301C114.855 43.9401 115.065 42.2401 115.285 40.5401C115.331 40.2622 115.398 39.9882 115.485 39.7201C115.515 39.5207 115.621 39.341 115.782 39.2195C115.943 39.0979 116.145 39.0443 116.345 39.0701C116.804 39.0749 117.256 38.9575 117.655 38.7301C118.578 38.2301 119.606 37.9559 120.655 37.9301C120.825 37.9378 120.995 37.9106 121.155 37.8501C121.703 37.6887 122.278 37.6374 122.846 37.6992C123.414 37.761 123.964 37.9346 124.465 38.2101C124.889 38.379 125.268 38.6424 125.575 38.9801C126.261 39.6743 126.721 40.5597 126.895 41.5201C126.965 42.0301 126.995 42.5201 127.035 43.0601C127.075 43.6318 126.964 44.2041 126.715 44.7201C126.475 45.2301 126.195 45.7201 125.945 46.2401C125.871 46.4265 125.76 46.5961 125.62 46.7387C125.479 46.8813 125.31 46.994 125.125 47.0701C124.285 47.4101 123.925 48.2501 123.395 48.9101C123.306 49.0571 123.278 49.2325 123.315 49.4001C123.578 51.4307 124.003 53.4371 124.585 55.4001C124.725 55.8301 124.835 56.2701 124.975 56.7101C125.429 58.2488 126.198 59.6758 127.235 60.9001C127.761 61.4878 128.375 61.9905 129.055 62.3901C130.318 63.1461 131.659 63.763 133.055 64.2301C134.025 64.578 135.068 64.6742 136.086 64.5099C137.104 64.3455 138.063 63.9258 138.875 63.2901C139.268 63.0002 139.57 62.6048 139.747 62.1499C139.924 61.695 139.968 61.1992 139.875 60.7201C139.875 60.5201 139.665 60.3401 139.545 60.1401C139.425 59.9401 138.915 59.6401 138.845 59.2101C138.845 59.0801 138.845 58.9801 138.985 58.9401C139.331 58.892 139.684 58.9625 139.985 59.1401C140.469 59.3251 140.873 59.6728 141.129 60.1235C141.384 60.5742 141.475 61.0998 141.385 61.6101C141.382 61.953 141.312 62.292 141.178 62.6077C141.044 62.9234 140.849 63.2097 140.605 63.4501C140.265 63.7601 139.985 64.1201 139.665 64.4501C139.595 64.5366 139.514 64.6139 139.425 64.6801C138.845 65.0401 138.225 65.3101 137.655 65.6801C137.314 65.8916 136.926 66.0152 136.525 66.0401C135.905 66.1001 135.275 66.0401 134.655 66.0401C134.365 66.0401 134.085 65.9501 133.805 65.9501C131.446 65.8485 129.139 65.2198 127.055 64.1101C126.586 63.9001 126.164 63.5973 125.815 63.2201C125.219 62.6216 124.701 61.9495 124.275 61.2201C124.087 60.8733 123.877 60.5392 123.645 60.2201C123.271 59.6463 122.979 59.0238 122.775 58.3701C122.345 57.0701 121.875 55.7801 121.475 54.4801C121.275 53.8301 121.175 53.1501 121.025 52.4801C120.875 51.8101 120.795 51.3601 120.665 50.8101C120.652 50.7246 120.619 50.6435 120.567 50.574C120.516 50.5044 120.448 50.4484 120.37 50.411C120.293 50.3735 120.207 50.3556 120.12 50.359C120.034 50.3623 119.95 50.3867 119.875 50.4301C119.035 50.7601 118.185 51.1101 117.355 51.4801C117.268 51.5375 117.195 51.6143 117.143 51.7046C117.091 51.7949 117.061 51.896 117.055 52.0001C116.975 52.7401 116.915 53.4801 116.805 54.2101C116.645 55.3401 116.595 56.4701 116.385 57.6001C116.175 58.7301 116.325 59.7601 116.185 60.8401C116.195 61.5075 116.172 62.175 116.115 62.8401C116.115 62.9701 116.265 63.1401 116.285 63.3101C116.305 63.4801 116.285 63.6901 116.195 63.7701C115.963 63.9808 115.692 64.1433 115.396 64.2481C115.101 64.3528 114.788 64.3977 114.475 64.3801C114.239 64.3684 114.014 64.28 113.834 64.1284C113.653 63.9767 113.527 63.7701 113.475 63.5401C113.45 63.1438 113.45 62.7463 113.475 62.3501C113.475 60.8701 113.565 59.3501 113.615 57.9001H113.605ZM117.515 47.0001H117.585C117.585 47.2201 117.585 47.4501 117.505 47.6801C117.505 47.6801 117.505 47.7901 117.505 47.8501C117.491 47.9194 117.495 47.9913 117.519 48.0581C117.542 48.125 117.583 48.1842 117.638 48.2294C117.692 48.2746 117.758 48.3041 117.828 48.3148C117.898 48.3255 117.969 48.317 118.035 48.2901C120.145 47.7928 122.091 46.7595 123.685 45.2901C123.78 45.2223 123.861 45.1376 123.925 45.0401C124.369 44.3142 124.681 43.5151 124.845 42.6801C124.908 42.2825 124.831 41.8753 124.627 41.5285C124.422 41.1816 124.104 40.917 123.725 40.7801C123.315 40.5778 122.861 40.4815 122.405 40.5001C121.836 40.4935 121.269 40.5744 120.725 40.7401C119.925 41.0401 119.155 41.3901 118.375 41.7401C118.271 41.7897 118.182 41.864 118.114 41.9564C118.046 42.0488 118.001 42.1565 117.985 42.2701C117.95 42.4951 117.93 42.7223 117.925 42.9501C117.925 43.5101 117.925 44.0801 117.865 44.6501C117.765 45.4201 117.625 46.2101 117.515 47.0001Z" fill="#587307"></path><path d="M71.1744 54.6301C71.0044 55.0701 70.8044 55.5301 70.6644 56.0101C70.4579 56.6028 70.3399 57.2229 70.3144 57.8501C70.2264 59.9121 70.006 61.9663 69.6544 64.0001C69.6544 64.4501 69.5044 64.8901 69.4344 65.3401C69.4282 65.41 69.4385 65.4804 69.4645 65.5457C69.4904 65.6109 69.5312 65.6692 69.5837 65.7158C69.6362 65.7625 69.6989 65.7962 69.7667 65.8143C69.8345 65.8324 69.9057 65.8344 69.9744 65.8201C70.3684 65.7513 70.7539 65.6407 71.1244 65.4901C72.1906 65.0901 73.316 64.8704 74.4544 64.8401C74.5944 64.8401 74.7444 65.0301 74.7344 65.1901C74.6821 65.5212 74.6487 65.8551 74.6344 66.1901C74.6344 66.7901 74.4544 67.1901 73.7844 67.1901C72.4796 67.7834 71.1444 68.3075 69.7844 68.7601C69.5185 68.8673 69.2693 69.0121 69.0444 69.1901C68.8675 69.331 68.7383 69.523 68.6744 69.7401C68.5123 70.3975 68.3986 71.066 68.3344 71.7401C68.2544 73.3901 68.0544 75.0301 67.8144 76.6601C67.7144 77.3401 67.6744 78.0201 67.6244 78.6601C67.6244 78.8701 67.9044 79.0501 68.1244 78.9601C68.7044 78.7201 69.2944 78.5201 69.8444 78.2401C71.0715 77.6369 72.3417 77.1255 73.6444 76.7101C73.8755 76.6654 74.0835 76.5406 74.2316 76.3577C74.3798 76.1747 74.4587 75.9454 74.4544 75.7101C74.4683 75.6546 74.4885 75.601 74.5144 75.5501C74.5508 75.4731 74.6119 75.4105 74.6881 75.3724C74.7642 75.3343 74.851 75.3229 74.9344 75.3401C75.0988 75.3724 75.2451 75.4652 75.3444 75.6001C75.5756 75.932 75.6688 76.3407 75.6044 76.7401C75.4796 77.1814 75.4796 77.6487 75.6044 78.0901C75.6395 78.1973 75.6395 78.3129 75.6044 78.4201C75.4573 78.9717 75.0978 79.4427 74.6044 79.7301C73.1952 80.4717 71.7143 81.0681 70.1844 81.5101C69.9059 81.575 69.6415 81.6902 69.4044 81.8501C68.0214 82.7578 66.4469 83.3328 64.8044 83.5301C64.5795 83.5748 64.3587 83.6384 64.1444 83.7201C64.0052 83.737 63.865 83.6982 63.7544 83.6119C63.6438 83.5257 63.5719 83.3992 63.5544 83.2601C63.5144 82.6941 63.5144 82.126 63.5544 81.5601C63.7944 79.5601 64.0044 77.5601 64.1644 75.5601C64.2444 74.5601 64.3744 73.5601 64.5144 72.5601C64.7844 70.6401 65.0844 68.7301 65.3644 66.8101C65.4208 66.533 65.4576 66.2523 65.4744 65.9701C65.5879 64.1467 65.8589 62.3367 66.2844 60.5601C66.6702 58.6036 66.9473 56.6272 67.1144 54.6401C67.1744 53.9001 67.1144 53.1601 67.1144 52.4201C67.0897 52.2474 67.1303 52.0717 67.2283 51.9274C67.3264 51.7831 67.4748 51.6807 67.6444 51.6401C67.7027 51.6372 67.7586 51.6162 67.8044 51.5801C68.6235 50.9471 69.6403 50.6247 70.6744 50.6701C71.9348 50.6375 73.1827 50.4116 74.3744 50.0001C75.0662 49.7372 75.8174 49.6714 76.5444 49.8101C77.6944 50.0201 77.8144 50.1101 77.6744 51.1701C77.61 51.4485 77.5898 51.7353 77.6144 52.0201C77.6528 52.2233 77.6175 52.4336 77.5149 52.6132C77.4123 52.7928 77.249 52.93 77.0544 53.0001C76.3382 53.3492 75.6038 53.6596 74.8544 53.9301C74.5274 54.0231 74.1927 54.0867 73.8544 54.1201L71.4844 54.4901C71.3773 54.5278 71.2736 54.5747 71.1744 54.6301Z" fill="#587307"></path><path d="M97.7242 70.2501C97.8072 70.4625 97.8093 70.6981 97.7301 70.9119C97.6508 71.1258 97.4956 71.3031 97.2942 71.4101C96.8442 71.6501 96.3742 71.8601 95.9142 72.0801C95.6484 72.1895 95.35 72.1895 95.0842 72.0801C94.8679 72.0196 94.6783 71.888 94.5458 71.7066C94.4134 71.5252 94.3459 71.3045 94.3542 71.0801C94.3687 70.911 94.3988 70.7436 94.4442 70.5801C94.7039 69.5148 94.9075 68.4367 95.0542 67.3501C95.1735 66.7362 95.3237 66.1288 95.5042 65.5301C95.7012 64.8742 95.8549 64.2061 95.9642 63.5301C96.1925 62.0044 96.5029 60.4922 96.8942 59.0001C97.3042 56.9301 97.8242 54.8901 98.0542 52.7901C98.2442 51.1501 98.5142 49.5201 98.8542 47.9001C99.0842 46.7901 99.5042 45.7201 99.8542 44.6201C100.057 44.1528 100.338 43.7234 100.684 43.3501C100.803 43.2282 100.951 43.1387 101.114 43.0901C101.388 43.015 101.65 42.904 101.894 42.7601C102.143 42.5656 102.446 42.4534 102.761 42.4391C103.077 42.4247 103.389 42.509 103.654 42.6801C103.812 42.7447 103.954 42.8411 104.073 42.9632C104.192 43.0854 104.284 43.2307 104.344 43.3901C104.596 44.0776 104.896 44.746 105.244 45.3901C106.156 47.2194 106.828 49.1587 107.244 51.1601C107.724 53.0901 108.134 55.0501 108.624 56.9701C109.114 58.8901 109.624 60.7201 110.174 62.5601C110.444 63.4301 110.824 64.2601 111.024 65.1501C111.069 65.3163 111.089 65.4881 111.084 65.6601C111.075 65.8257 111.012 65.9837 110.904 66.1101C110.609 66.3785 110.295 66.6258 109.964 66.8501C109.87 66.9392 109.755 67.0037 109.63 67.038C109.505 67.0723 109.373 67.0752 109.247 67.0466C109.12 67.0179 109.003 66.9585 108.905 66.8737C108.807 66.7888 108.731 66.6811 108.684 66.5601C108.58 66.3599 108.49 66.1528 108.414 65.9401C108.308 65.612 108.222 65.2781 108.154 64.9401C107.714 62.3501 106.914 59.8401 106.294 57.3001C106.268 57.1885 106.221 57.0832 106.154 56.9901C106.09 56.9067 105.998 56.8498 105.894 56.8301C105.784 56.8257 105.675 56.8462 105.574 56.8901C104.656 57.1949 103.721 57.4453 102.774 57.6401C102.044 57.7901 101.344 58.0401 100.634 58.2401C100.414 58.294 100.213 58.4104 100.057 58.5753C99.901 58.7403 99.7958 58.9468 99.7542 59.1701C99.6119 60.071 99.3496 60.9488 98.9742 61.7801C98.9611 61.8326 98.9611 61.8875 98.9742 61.9401C98.9742 63.4901 98.3942 64.9401 98.2342 66.4701C98.2342 66.9801 98.1642 67.4701 98.1042 68.0001C98.0442 68.5301 97.9442 68.9001 97.8742 69.3501C97.8042 69.8001 97.7442 70.0601 97.7242 70.2501ZM102.724 46.1601C102.602 46.2977 102.501 46.4527 102.424 46.6201C102.274 47.2201 102.194 47.8501 102.014 48.4501C101.666 49.6468 101.402 50.8664 101.224 52.1001C101.23 52.501 101.079 52.8885 100.804 53.1801C100.761 53.2176 100.727 53.2637 100.703 53.3153C100.678 53.367 100.665 53.4231 100.664 53.4801C100.664 54.1601 100.584 54.8401 100.574 55.4801C100.587 55.5317 100.614 55.5791 100.65 55.6176C100.687 55.6561 100.733 55.6845 100.784 55.7001C101.007 55.72 101.231 55.72 101.454 55.7001C102.754 55.5101 103.924 54.8501 105.234 54.7001C105.344 54.7001 105.484 54.4401 105.484 54.3001C105.477 54.0735 105.43 53.85 105.344 53.6401C104.624 51.4801 103.904 49.3201 103.164 47.1601C103.023 46.8179 102.863 46.484 102.684 46.1601H102.724Z" fill="#587307"></path><path d="M89.0549 54.4102C89.0549 54.9202 89.0549 55.4102 89.0549 55.9402C88.8049 58.1502 88.6349 60.3702 88.2349 62.5602C88.1749 62.8902 88.2349 63.2402 88.1449 63.5602C88.1306 64.1308 88.0704 64.6992 87.9649 65.2602C87.7049 66.2602 87.7149 67.4002 87.5549 68.4602C87.4801 68.9708 87.4801 69.4896 87.5549 70.0002C87.6269 70.5068 87.6031 71.0223 87.4849 71.5202C87.3649 72.0702 87.2749 72.6402 87.1749 73.2002C87.1019 73.5906 87.1294 73.9933 87.2549 74.3702C87.316 74.5573 87.3094 74.76 87.2363 74.9427C87.1632 75.1255 87.0282 75.2768 86.8549 75.3702C86.2549 75.6902 85.6449 76.0102 85.0249 76.3002C84.8946 76.3596 84.7531 76.3904 84.6099 76.3904C84.4667 76.3904 84.3252 76.3596 84.1949 76.3002C83.9049 76.2002 83.7249 75.8602 83.9049 75.6402C84.2016 75.2931 84.3553 74.8463 84.3349 74.3902C84.3349 73.3902 84.3349 72.3302 84.3349 71.3102C84.3349 70.8502 84.3349 70.3902 84.3349 69.9402C84.3349 69.3102 84.3949 68.6902 84.4149 68.0602C84.3999 67.8338 84.3999 67.6066 84.4149 67.3802C84.8149 65.1302 84.8749 62.8402 85.2349 60.5902C85.2852 60.3666 85.3153 60.1391 85.3249 59.9102C85.4516 57.9764 85.6786 56.0504 86.0049 54.1402C86.1149 53.2402 86.1049 52.3202 86.1449 51.4102C86.1426 51.3549 86.1288 51.3006 86.1044 51.2509C86.0801 51.2012 86.0457 51.1571 86.0034 51.1214C85.9611 51.0857 85.9118 51.0591 85.8587 51.0434C85.8056 51.0277 85.7498 51.0232 85.6949 51.0302C85.6384 51.0246 85.5815 51.0246 85.5249 51.0302C83.9172 51.4077 82.3499 51.9402 80.8449 52.6202C80.7905 52.6461 80.7336 52.6663 80.6749 52.6802C80.5632 52.7197 80.4436 52.7322 80.3261 52.7166C80.2085 52.701 80.0964 52.6578 79.9988 52.5904C79.9012 52.5231 79.821 52.4336 79.7647 52.3293C79.7084 52.2249 79.6776 52.1087 79.6749 51.9902C79.655 51.7639 79.655 51.5364 79.6749 51.3102C79.754 50.8063 79.7059 50.2907 79.5349 49.8102C79.4854 49.6715 79.4886 49.5195 79.544 49.383C79.5993 49.2466 79.7028 49.1352 79.8349 49.0702C80.7166 48.5514 81.6565 48.1386 82.6349 47.8402L86.7649 46.7402L88.0849 46.4002C88.3638 46.3488 88.6356 46.2649 88.8949 46.1502C90.3065 45.5294 91.8093 45.1411 93.3449 45.0002C94.3642 44.8868 95.3893 44.8334 96.4149 44.8402C96.5565 44.8568 96.689 44.9181 96.7933 45.0152C96.8976 45.1123 96.9683 45.2402 96.9949 45.3802C97.0399 46.1762 97.0399 46.9741 96.9949 47.7702C96.9172 48.1596 96.7569 48.5279 96.5249 48.8502C96.4758 48.9183 96.4112 48.9738 96.3364 49.012C96.2617 49.0503 96.1789 49.0702 96.0949 49.0702C95.6619 48.9508 95.2081 48.9269 94.7649 49.0002C94.1649 49.2102 93.5349 49.2602 92.9449 49.4402C91.9658 49.7417 90.9619 49.9558 89.9449 50.0802C89.8026 50.0997 89.6709 50.1665 89.5712 50.2699C89.4714 50.3733 89.4093 50.5072 89.3949 50.6502C89.1351 51.8859 89.021 53.1479 89.0549 54.4102Z" fill="#587307"></path><path d="M144.835 43.08C144.029 43.1493 143.245 43.3734 142.525 43.74L140.335 44.5C140.132 44.7289 140.006 45.0157 139.975 45.32C139.481 47.1364 139.11 48.9839 138.865 50.85C138.804 51.359 138.63 51.8477 138.355 52.28C138.235 52.47 138.175 52.69 138.075 52.89C137.974 53.0598 137.825 53.196 137.647 53.2814C137.469 53.3668 137.27 53.3976 137.075 53.37C136.76 53.3316 136.468 53.1884 136.244 52.9634C136.021 52.7384 135.88 52.4449 135.845 52.13C135.804 51.7344 135.804 51.3357 135.845 50.94C136.005 49.81 136.185 48.69 136.375 47.57C136.455 47.1817 136.555 46.7979 136.675 46.42C137.078 45.2304 137.412 44.0184 137.675 42.79C137.754 42.4018 137.864 42.0206 138.005 41.65C138.255 40.9536 138.462 40.2422 138.625 39.52C138.768 38.9072 138.966 38.3082 139.215 37.73C139.915 35.87 140.705 34.04 141.355 32.16C141.452 31.8302 141.621 31.5258 141.849 31.2684C142.077 31.0109 142.359 30.8066 142.675 30.67C142.935 30.56 143.175 30.4 143.415 30.27C143.616 30.2946 143.81 30.3628 143.983 30.4699C144.156 30.5769 144.303 30.7203 144.415 30.89C144.773 31.3244 145.081 31.7974 145.335 32.3C145.608 32.9248 145.842 33.566 146.035 34.22C146.129 34.5478 146.199 34.882 146.245 35.22C146.355 35.9502 146.515 36.672 146.725 37.38C147.019 38.4208 147.2 39.4903 147.265 40.57C147.391 41.9326 147.588 43.2878 147.855 44.63C148.025 45.52 148.085 46.44 148.165 47.34C148.199 47.5665 148.172 47.7981 148.085 48.01C147.995 48.19 147.775 48.44 147.615 48.44C147.117 48.4585 146.619 48.4418 146.125 48.39C146.044 48.3625 145.972 48.3164 145.913 48.2556C145.854 48.1948 145.81 48.121 145.785 48.04C145.559 47.1542 145.409 46.251 145.335 45.34C145.345 44.7153 145.25 44.0934 145.055 43.5C144.989 43.356 144.916 43.2157 144.835 43.08ZM143.135 34C143.002 34.1937 142.891 34.4017 142.805 34.62C142.335 36.3 141.875 37.99 141.445 39.68C141.305 40.23 141.245 40.8 141.155 41.36C141.156 41.4007 141.165 41.4408 141.182 41.4779C141.199 41.515 141.223 41.5485 141.252 41.5763C141.282 41.6042 141.317 41.6259 141.355 41.6403C141.393 41.6547 141.434 41.6614 141.475 41.66C142.344 41.4159 143.229 41.2354 144.125 41.12C144.495 41.12 144.685 40.81 144.665 40.39C144.67 40.1073 144.64 39.8251 144.575 39.55C144.419 38.9463 144.312 38.3309 144.255 37.71C144.035 36.6 143.775 35.5 143.515 34.4C143.485 34.22 143.295 34.12 143.135 34Z" fill="#587307"></path><path d="M158.995 45.0001C156.995 45.2401 157.185 44.7201 156.635 43.6901C156.203 42.8841 155.845 42.0407 155.565 41.1701C155.115 39.7601 154.625 38.3701 154.145 36.9701C154.084 36.8792 153.991 36.8149 153.885 36.7901C153.765 36.7901 153.675 36.7901 153.665 36.9801C153.445 39.4801 153.235 41.9801 153.115 44.4701C153.053 45.1452 152.936 45.814 152.765 46.4701C152.744 46.5856 152.685 46.6911 152.599 46.7705C152.512 46.85 152.402 46.8989 152.285 46.9101C151.836 46.8745 151.385 46.9255 150.955 47.0601C150.795 47.1301 150.495 46.8401 150.485 46.6501C150.47 46.3669 150.47 46.0832 150.485 45.8001C150.485 44.4301 150.535 43.0601 150.565 41.6901C150.565 41.3501 150.565 41.0101 150.635 40.6901L151.085 36.7801C151.085 36.5001 151.085 36.2201 151.145 35.9301L151.505 29.7901C151.522 29.6187 151.548 29.4484 151.585 29.2801C151.637 29.1487 151.726 29.0353 151.842 28.9536C151.957 28.872 152.094 28.8256 152.235 28.8201C152.465 28.7879 152.699 28.8322 152.901 28.946C153.104 29.0598 153.263 29.2369 153.355 29.4501C153.685 30.4501 154.225 31.3101 154.575 32.2701C155.323 34.1166 155.925 36.0191 156.375 37.9601C156.38 38.0742 156.407 38.1862 156.455 38.2901C156.793 38.9491 157.078 39.6347 157.305 40.3401C157.386 40.4866 157.487 40.6212 157.605 40.7401C157.605 40.7401 157.715 40.8201 157.745 40.8001C157.775 40.7801 157.975 40.6901 157.985 40.6301C157.985 39.7701 158.085 38.9201 158.075 38.0701C158.075 36.3001 158.075 34.5301 158.275 32.7701C158.275 32.2001 158.275 31.6301 158.275 31.0601C158.325 30.0601 158.375 29.1301 158.435 28.1601C158.445 28.0176 158.508 27.8841 158.612 27.786C158.715 27.6879 158.852 27.6322 158.995 27.6301C159.566 27.5946 160.135 27.7229 160.635 28.0001C160.735 28.0537 160.817 28.135 160.872 28.2344C160.927 28.3337 160.953 28.4468 160.945 28.5601C160.875 28.8901 160.805 29.2301 160.705 29.5601C160.43 30.6068 160.312 31.6886 160.355 32.7701C160.355 34.2601 160.245 35.7701 160.135 37.2101C160.055 38.0001 160.055 38.8001 160.055 39.5901C160.078 40.2616 160.017 40.9334 159.875 41.5901C159.734 42.203 159.674 42.8316 159.695 43.4601C159.687 43.7504 159.621 44.0363 159.5 44.3007C159.38 44.5652 159.208 44.8029 158.995 45.0001Z" fill="#587307"></path><path d="M112.444 97.4501C113.094 97.4501 113.724 97.4501 114.344 97.4501C117.344 97.5401 120.344 97.6101 123.404 97.4501C125.574 97.3701 127.734 97.5101 129.894 97.4501C131.434 97.4501 132.974 97.3902 134.514 97.3302C134.967 97.3052 135.422 97.3052 135.874 97.3302C139.184 97.5402 142.484 97.6002 145.794 97.6202C146.934 97.6202 148.064 97.7302 149.204 97.8102C149.318 97.8276 149.425 97.8734 149.516 97.9433C149.607 98.0132 149.679 98.105 149.724 98.2102C149.761 98.2847 149.781 98.3669 149.781 98.4501C149.781 98.5334 149.761 98.6156 149.724 98.6902C149.547 98.8777 149.327 99.0214 149.085 99.1099C148.842 99.1984 148.581 99.2293 148.324 99.2001C146 98.9499 143.662 98.8397 141.324 98.8702C141.094 98.8702 140.864 98.8702 140.644 98.8702C138.606 98.6455 136.555 98.5553 134.504 98.6002C132.404 98.5002 130.284 98.6002 128.184 98.6702C126.874 98.7302 125.574 98.7302 124.264 98.6702C122.898 98.5785 121.527 98.6019 120.164 98.7402C119.836 98.8077 119.499 98.8279 119.164 98.8002C117.404 98.6651 115.635 98.6651 113.874 98.8002C111.709 98.7999 109.546 98.6797 107.394 98.4402C107.175 98.389 106.95 98.3621 106.724 98.3602C105.304 98.4502 103.874 98.3602 102.454 98.3602C102.114 98.3602 101.774 98.4402 101.454 98.4702C101.008 98.5413 100.556 98.5681 100.104 98.5502C99.0304 98.4451 97.9486 98.4451 96.8745 98.5502C96.2445 98.6002 95.6245 98.5502 94.9945 98.5502C94.0845 98.5502 93.1745 98.5502 92.2645 98.6202C91.0638 98.6508 89.8633 98.5502 88.6845 98.3202C88.5999 98.3104 88.5188 98.2809 88.4478 98.2339C88.3768 98.1868 88.318 98.1237 88.2761 98.0496C88.2341 97.9755 88.2103 97.8925 88.2066 97.8075C88.2028 97.7224 88.2192 97.6377 88.2545 97.5602C88.2545 97.4602 88.3645 97.3302 88.4445 97.3102C88.7138 97.2256 88.9926 97.1752 89.2745 97.1602C90.5845 97.1602 91.8945 97.2402 93.2045 97.2402C94.8645 97.2402 96.5145 97.2402 98.2045 97.2402C102.314 97.1802 106.414 97.1002 110.514 97.2402C111.104 97.3402 111.784 97.4101 112.444 97.4501Z" fill="#587307"></path><path d="M133.215 54.58L131.815 55.49C131.74 55.5287 131.658 55.55 131.573 55.5523C131.489 55.5546 131.405 55.5378 131.328 55.5032C131.251 55.4686 131.183 55.4171 131.129 55.3524C131.075 55.2878 131.036 55.2118 131.015 55.13C130.938 54.8578 130.882 54.5804 130.845 54.3C130.615 51.5221 130.595 48.7309 130.785 45.95C130.845 45.21 130.865 44.47 130.885 43.73C130.958 42.3688 131.112 41.0131 131.345 39.67C131.585 38.03 131.775 36.4 131.935 34.76C131.94 34.5907 131.989 34.4256 132.075 34.28C132.165 34.16 132.365 34.02 132.495 34.05C133.021 34.1553 133.512 34.3889 133.925 34.73C134.192 35.5802 134.314 36.4693 134.285 37.36C134.285 38.44 134.285 39.51 134.285 40.59C134.285 41.27 134.145 41.95 134.105 42.59C134.105 43.5 133.935 44.4 133.835 45.3C133.735 46.2 133.785 47.01 133.715 47.86C133.565 49.61 133.455 51.37 133.385 53.13C133.325 53.61 133.265 54.06 133.215 54.58Z" fill="#587307"></path><path d="M120.245 86.3301C120.44 85.6105 120.587 84.8789 120.685 84.1401C120.875 82.3301 121.085 80.5201 121.125 78.7001C121.14 78.4736 121.191 78.2509 121.275 78.0401C121.275 77.9501 121.435 77.8101 121.505 77.8101C121.669 77.8179 121.827 77.8774 121.955 77.9801C122.085 78.089 122.171 78.2421 122.195 78.4101C122.265 78.9177 122.265 79.4324 122.195 79.9401C122.073 80.7849 122.007 81.6366 121.995 82.4901C121.96 83.3404 121.88 84.1882 121.755 85.0301C121.544 86.3815 121.407 87.7436 121.345 89.1101C121.383 90.2504 121.248 91.3899 120.945 92.4901C120.92 92.7127 120.92 92.9374 120.945 93.1601C120.943 93.4419 120.916 93.723 120.865 94.0001C120.828 94.0755 120.775 94.1423 120.71 94.196C120.645 94.2498 120.57 94.2892 120.489 94.3119C120.407 94.3345 120.323 94.3398 120.239 94.3274C120.156 94.3151 120.076 94.2853 120.005 94.2401L119.765 93.9901C119.545 93.7601 119.605 93.2901 119.165 93.2501C118.725 93.2101 118.555 93.5101 118.275 93.7001C117.899 93.9577 117.475 94.1373 117.029 94.2283C116.582 94.3194 116.122 94.32 115.675 94.2301C115.39 94.191 115.118 94.0879 114.879 93.9286C114.64 93.7692 114.441 93.5578 114.295 93.3101C113.54 92.149 113.267 90.739 113.535 89.3801C113.676 88.7101 113.957 88.0773 114.358 87.5227C114.76 86.968 115.273 86.5038 115.865 86.1601C116.014 86.0737 116.176 86.0128 116.345 85.9801C116.675 85.9101 117.015 85.8701 117.345 85.7901C118.125 85.5816 118.955 85.6894 119.655 86.0901C119.844 86.1877 120.042 86.268 120.245 86.3301ZM120.115 87.1601C118.889 86.8806 117.603 87.0658 116.505 87.6801C116.038 87.9053 115.659 88.2778 115.425 88.7401C115.129 89.2644 114.967 89.8541 114.955 90.4562C114.943 91.0584 115.08 91.6541 115.355 92.1901C115.488 92.4117 115.677 92.5936 115.904 92.7167C116.131 92.8399 116.387 92.8998 116.645 92.8901C116.87 92.8768 117.092 92.8331 117.305 92.7601C118.123 92.4685 118.882 92.0315 119.545 91.4701C119.675 90.7601 119.825 90.0401 119.925 89.3101C120.025 88.5801 120.055 88.0001 120.115 87.1601Z" fill="#587307"></path><path d="M84.2648 98.4501C84.4048 96.0801 84.5248 94.2601 84.6148 92.4501C84.6848 91.1901 84.7848 89.9401 84.7748 88.6901C84.8022 87.6055 84.8957 86.5235 85.0548 85.4501C85.1248 84.8601 85.1948 84.4501 86.0548 84.7101C86.3862 84.803 86.7395 84.7783 87.0548 84.6401C87.8794 84.3903 88.7676 84.4581 89.5448 84.8301C90.0176 85.0367 90.4696 85.2878 90.8948 85.5801C91.7313 86.1761 92.355 87.0241 92.6748 88.0001C92.7703 88.2692 92.8011 88.557 92.7648 88.8401C92.6326 90.0774 92.0182 91.2127 91.0548 92.0001C90.8385 92.1851 90.5914 92.3307 90.3248 92.4301C89.6932 92.7 89.0115 92.8329 88.3248 92.8201C87.7048 92.8201 87.0748 92.8201 86.4448 92.8201C86.3361 92.8455 86.2358 92.8983 86.1535 92.9736C86.0712 93.0489 86.0096 93.1442 85.9748 93.2501C85.912 93.5268 85.8685 93.8075 85.8448 94.0901C85.8448 94.9501 85.8448 95.8001 85.7648 96.6601C85.7833 98.4243 85.6562 100.187 85.3848 101.93C85.3241 102.147 85.2437 102.358 85.1448 102.56C85.0888 102.621 85.0163 102.663 84.9363 102.683C84.8563 102.702 84.7723 102.698 84.6948 102.67C84.6048 102.61 84.4848 102.54 84.4648 102.45C84.3735 102.124 84.3165 101.788 84.2948 101.45C84.2548 100.29 84.2648 99.1001 84.2648 98.4501ZM86.0548 89.2101C86.0548 89.4001 86.0548 89.7401 86.0548 90.0801C86.0548 91.4501 86.1148 91.5301 87.4648 91.5501C88.0869 91.5736 88.7098 91.5368 89.3248 91.4401C89.7917 91.3463 90.2244 91.1274 90.5766 90.8069C90.9289 90.4863 91.1874 90.0762 91.3248 89.6201C91.4913 89.2265 91.5355 88.7919 91.4516 88.3728C91.3678 87.9537 91.1599 87.5695 90.8548 87.2701C90.6764 87.0512 90.4552 86.8708 90.2048 86.7401C89.7988 86.5421 89.3814 86.3685 88.9548 86.2201C88.3651 86.0124 87.7368 85.9372 87.1148 86.0001C86.8578 86.0246 86.6174 86.1378 86.4349 86.3203C86.2524 86.5028 86.1392 86.7432 86.1148 87.0001C86.0548 87.7101 86.0548 88.3901 86.0548 89.2101Z" fill="#587307"></path><path d="M144.695 84.16C144.626 84.3092 144.579 84.4675 144.555 84.63C144.305 87.1251 144.235 89.6349 144.345 92.14C144.345 92.25 144.345 92.36 144.395 92.47C144.455 92.6616 144.585 92.8235 144.759 92.9235C144.934 93.0236 145.139 93.0544 145.335 93.01C145.755 92.84 146.155 92.63 146.575 92.45C146.923 92.2545 147.308 92.132 147.705 92.09C147.985 92.09 148.245 92.16 148.275 92.32C148.282 92.4051 148.265 92.4903 148.226 92.5662C148.187 92.6422 148.128 92.7058 148.055 92.75C147.455 93.27 146.835 93.75 146.225 94.29C145.952 94.4968 145.617 94.6028 145.275 94.59C144.587 94.6134 143.911 94.4057 143.355 94C143.165 93.8673 143.032 93.667 142.985 93.44C142.985 93.33 142.935 93.22 142.915 93.11C142.648 91.3619 142.621 89.5855 142.835 87.83C143.005 86.72 142.965 85.56 143.025 84.43C143.026 84.3154 142.987 84.2041 142.914 84.116C142.84 84.028 142.738 83.9691 142.625 83.95C142.115 83.88 141.625 83.81 141.105 83.72C140.912 83.6638 140.747 83.5369 140.643 83.3646C140.539 83.1922 140.504 82.9871 140.545 82.79C140.545 82.6 140.805 82.32 140.975 82.31H141.825C142.165 82.31 142.505 82.31 142.825 82.31C142.998 82.3239 143.17 82.2686 143.303 82.1562C143.436 82.0438 143.52 81.8835 143.535 81.71C143.645 80.92 143.725 80.13 143.825 79.34C143.885 78.94 143.945 78.55 144.015 78.16C144.057 78.0545 144.129 77.963 144.221 77.8958C144.313 77.8287 144.421 77.7886 144.535 77.78C144.665 77.78 144.915 77.91 144.935 78.02C144.994 78.2395 145.034 78.4636 145.055 78.69C145.082 79.7724 144.998 80.8547 144.805 81.92C144.798 81.9752 144.802 82.0313 144.817 82.0849C144.832 82.1386 144.857 82.1887 144.892 82.2324C144.926 82.2762 144.969 82.3126 145.017 82.3397C145.066 82.3667 145.12 82.3838 145.175 82.39C145.913 82.3246 146.657 82.3854 147.375 82.57C147.455 82.57 147.505 82.7 147.545 82.79C147.585 82.88 147.545 82.89 147.455 82.92C147.313 83.0124 147.163 83.0896 147.005 83.15C146.632 83.2961 146.251 83.4229 145.865 83.53C145.429 83.6416 145.028 83.8579 144.695 84.16Z" fill="#587307"></path><path d="M99.4448 89.56C99.3568 90.2318 99.4183 90.9147 99.6248 91.56C99.883 92.4935 99.9577 93.4681 99.8448 94.43C99.8423 94.5157 99.813 94.5985 99.7609 94.6667C99.7089 94.7348 99.6368 94.785 99.5548 94.81C99.4493 94.854 99.3337 94.8679 99.2207 94.8502C99.1078 94.8326 99.0019 94.7841 98.9148 94.71C98.6935 94.5293 98.5473 94.2726 98.5048 93.99C98.3748 93.14 98.2448 92.3 98.1048 91.45C98.0643 91.1135 98.0042 90.7796 97.9248 90.45C97.8977 90.3083 97.8274 90.1784 97.7235 90.0781C97.6197 89.9779 97.4874 89.9122 97.3448 89.89C97.0048 89.89 96.6648 89.89 96.3448 89.83C96.2021 89.8404 96.0673 89.8999 95.9635 89.9983C95.8596 90.0967 95.7929 90.2281 95.7748 90.37C95.6284 91.1543 95.5814 91.954 95.6348 92.75C95.6707 93.2635 95.5707 93.7774 95.3448 94.24C95.2548 94.44 94.9948 94.67 94.8548 94.66C94.7222 94.6166 94.6025 94.5409 94.5064 94.4396C94.4104 94.3384 94.3411 94.2148 94.3048 94.08C94.1513 93.4252 94.094 92.7514 94.1348 92.08C94.2225 90.5417 94.4365 89.0132 94.7748 87.51C94.9548 86.79 95.1448 86.08 95.3148 85.36C95.3432 85.1896 95.4312 85.0347 95.563 84.923C95.6949 84.8113 95.862 84.75 96.0348 84.75C96.8756 84.5946 97.7299 84.5242 98.5848 84.54C99.2084 84.6155 99.7925 84.8849 100.255 85.31C100.625 85.6306 100.876 86.0668 100.966 86.5479C101.057 87.029 100.983 87.5267 100.755 87.96C100.601 88.2638 100.413 88.549 100.195 88.81C99.9578 89.0727 99.7075 89.323 99.4448 89.56ZM96.9748 88.37C97.4319 88.4165 97.8937 88.3677 98.3309 88.2265C98.7681 88.0854 99.1712 87.855 99.5148 87.55C99.6444 87.4158 99.7168 87.2366 99.7168 87.05C99.7168 86.8635 99.6444 86.6842 99.5148 86.55C99.1403 86.2463 98.6792 86.0691 98.1976 86.044C97.7161 86.0188 97.239 86.147 96.8348 86.41C96.7017 86.5159 96.5927 86.6488 96.5148 86.8C96.3323 87.1549 96.2461 87.5514 96.2648 87.95C96.2746 88.0611 96.3213 88.1658 96.3974 88.2473C96.4735 88.3289 96.5747 88.3826 96.6848 88.4L96.9748 88.37Z" fill="#587307"></path><path d="M123.934 91.5402C123.994 89.8298 124.215 88.1289 124.594 86.4601C124.669 86.1866 124.773 85.9217 124.904 85.6701C124.959 85.5392 125.059 85.4315 125.185 85.3658C125.311 85.3001 125.455 85.2804 125.594 85.3101C125.761 85.3525 125.908 85.4494 126.014 85.5853C126.119 85.7212 126.175 85.8883 126.174 86.0601C126.167 86.1729 126.143 86.284 126.104 86.3901C125.587 87.7199 125.362 89.1456 125.444 90.5701C125.444 91.0201 125.444 91.4802 125.444 91.9302C125.468 92.327 125.521 92.7215 125.604 93.1102C125.645 93.2172 125.718 93.3091 125.813 93.3734C125.908 93.4378 126.02 93.4716 126.134 93.4702C126.359 93.4584 126.58 93.4041 126.784 93.3101C127.483 92.9152 128.058 92.3335 128.444 91.6301C128.866 90.8909 129.202 90.1058 129.444 89.2902C129.587 88.6163 129.881 87.9838 130.304 87.4402C130.634 87.0702 130.534 86.5602 130.774 86.1802C130.825 86.1155 130.888 86.0624 130.96 86.0244C131.033 85.9865 131.113 85.9645 131.194 85.9601C131.276 85.9636 131.356 85.9862 131.427 86.0262C131.498 86.0661 131.559 86.1223 131.604 86.1902C131.818 86.5297 131.913 86.9307 131.874 87.3302C131.683 88.6247 131.586 89.9315 131.584 91.2401C131.454 92.3801 131.344 93.5101 131.204 94.6402C131.204 94.7901 131.034 94.9201 130.934 95.0601C130.872 95.1143 130.797 95.1504 130.716 95.1645C130.634 95.1786 130.551 95.1702 130.474 95.1402C130.329 95.0503 130.203 94.9325 130.103 94.7934C130.003 94.6543 129.933 94.4969 129.894 94.3302C129.81 93.7666 129.81 93.1937 129.894 92.6301C129.894 92.6055 129.888 92.5813 129.878 92.5589C129.868 92.5366 129.853 92.5166 129.834 92.5002C129.812 92.482 129.785 92.469 129.757 92.4621C129.729 92.4553 129.699 92.4547 129.67 92.4604C129.642 92.4661 129.615 92.478 129.591 92.4952C129.568 92.5124 129.548 92.5346 129.534 92.5601C129.368 92.7189 129.218 92.893 129.084 93.0802C128.565 93.7629 127.92 94.3399 127.184 94.7801C126.989 94.8892 126.768 94.9412 126.544 94.9302C126.315 94.9291 126.086 94.8988 125.864 94.8401C124.404 94.5001 124.284 94.0302 123.994 92.7302C123.929 92.3371 123.909 91.9378 123.934 91.5402Z" fill="#587307"></path><path d="M111.825 90.26C111.705 90.8 111.585 91.47 111.405 92.13C111.319 92.4019 111.164 92.6467 110.955 92.84C110.052 93.71 108.95 94.3453 107.745 94.69C107.184 94.7811 106.609 94.7022 106.094 94.4633C105.579 94.2245 105.147 93.8366 104.855 93.35C104.666 93.0014 104.519 92.6323 104.415 92.25C104.173 91.2694 104.105 90.254 104.215 89.25C104.369 88.2244 104.634 87.2185 105.005 86.25C105.077 86.0938 105.171 85.9489 105.285 85.82C105.349 85.7247 105.441 85.6515 105.549 85.6103C105.656 85.5692 105.773 85.5621 105.885 85.59C106.409 85.801 106.987 85.8395 107.535 85.7C107.93 85.6599 108.329 85.6599 108.725 85.7C109.241 85.7118 109.738 85.8987 110.135 86.23C110.945 86.8781 111.492 87.7985 111.675 88.82C111.765 89.21 111.765 89.67 111.825 90.26ZM105.595 89C105.579 89.9074 105.67 90.8136 105.865 91.7C105.944 92.0886 106.089 92.4607 106.295 92.8C106.436 93.046 106.663 93.2311 106.933 93.3197C107.202 93.4083 107.495 93.3941 107.755 93.28C108.325 93.02 108.895 92.77 109.445 92.49C109.646 92.3881 109.818 92.2367 109.945 92.05C110.124 91.7605 110.262 91.4475 110.355 91.12C110.548 90.5537 110.593 89.9473 110.484 89.3589C110.376 88.7705 110.118 88.2199 109.735 87.76C109.629 87.627 109.497 87.5168 109.348 87.4361C109.198 87.3553 109.034 87.3056 108.865 87.29C107.902 87.2382 106.936 87.2918 105.985 87.45C105.875 87.45 105.725 87.68 105.705 87.82C105.648 88.2112 105.612 88.605 105.595 89Z" fill="#587307"></path><path d="M58.9652 39.7601L60.8252 39.9501C60.8252 39.9501 60.8952 40.0301 60.9052 40.0801C60.9152 40.1301 60.9052 40.2101 60.9052 40.2201C60.0329 40.6218 59.1117 40.9076 58.1652 41.0701C57.0959 41.2462 56.0375 41.4833 54.9952 41.7801C53.2168 42.2054 51.567 43.0526 50.1852 44.2501C48.9568 45.2618 47.8644 46.4282 46.9352 47.7201C46.4253 48.4189 45.8744 49.0867 45.2852 49.7201C45.1926 49.7872 45.0792 49.8191 44.9652 49.8101C44.8068 49.7496 44.6749 49.6352 44.5926 49.4871C44.5102 49.3389 44.4828 49.1665 44.5152 49.0001C44.7052 48.6601 44.9252 48.3301 45.1252 48.0001C46.1014 46.3235 47.3521 44.8227 48.8252 43.5601C50.5267 42.029 52.5599 40.9131 54.7652 40.3001C56.1357 39.9379 57.5476 39.7563 58.9652 39.7601Z" fill="#587307"></path><path d="M60.4449 23.12L63.7649 21.82C64.827 21.4113 65.957 21.2077 67.0949 21.22C67.3219 21.2357 67.5466 21.2759 67.7649 21.34C67.7649 21.34 67.8249 21.42 67.8349 21.46C67.8449 21.5 67.8349 21.6 67.8349 21.61C67.398 21.8652 66.9435 22.0891 66.4749 22.28C64.3311 23.0363 62.2595 23.9834 60.2849 25.11C59.6553 25.4938 58.941 25.717 58.2049 25.76C58.1057 25.7661 58.0067 25.7457 57.9179 25.7009C57.8292 25.6561 57.754 25.5885 57.7 25.505C57.6461 25.4216 57.6153 25.3252 57.6109 25.2259C57.6065 25.1266 57.6286 25.0279 57.6749 24.94C57.6921 24.8842 57.7156 24.8305 57.7449 24.78C58.7763 22.9684 59.5536 21.0235 60.0549 19C60.2049 18.45 60.3749 17.91 60.5749 17.38C60.653 17.2292 60.7799 17.1093 60.9349 17.04C61.1749 16.92 61.7149 17.35 61.6349 17.6C61.4066 19.0525 61.0724 20.4863 60.6349 21.89C60.5114 22.2126 60.4242 22.548 60.3749 22.89C60.2849 22.91 60.3849 23 60.4449 23.12Z" fill="#587307"></path><path d="M135.055 90.5802C135.019 91.4522 135.276 92.3111 135.785 93.0202C135.966 93.281 136.22 93.482 136.516 93.5978C136.811 93.7135 137.135 93.7387 137.445 93.6702C137.955 93.5702 138.445 93.4302 138.945 93.3102C139.105 93.3102 139.265 93.2002 139.435 93.1702C139.605 93.1402 139.815 93.1702 139.865 93.3502C139.892 93.4261 139.9 93.5074 139.89 93.5874C139.88 93.6674 139.85 93.7437 139.805 93.8102C139.474 94.1227 139.104 94.3916 138.705 94.6102C137.895 95.0528 136.943 95.1605 136.055 94.9102C135.641 94.7957 135.258 94.5897 134.934 94.3076C134.611 94.0255 134.355 93.6744 134.185 93.2802C133.957 92.7622 133.76 92.2313 133.595 91.6902C133.406 91.1462 133.379 90.5595 133.515 90.0002C133.649 89.2746 133.822 88.5569 134.035 87.8502C134.183 87.4164 134.416 87.0163 134.72 86.6731C135.023 86.3298 135.392 86.0501 135.805 85.8502C136.165 85.6746 136.565 85.5954 136.965 85.6202C137.309 85.6246 137.642 85.7442 137.91 85.9599C138.178 86.1756 138.366 86.4749 138.445 86.8102C138.445 86.9102 138.305 87.1102 138.195 87.2102C138.085 87.3102 137.965 87.2102 137.875 87.2102C137.701 87.1075 137.506 87.0461 137.305 87.0305C137.104 87.0149 136.902 87.0456 136.715 87.1202C136.424 87.2406 136.162 87.4215 135.947 87.6508C135.731 87.8801 135.567 88.1526 135.465 88.4502C135.218 89.1346 135.08 89.8532 135.055 90.5802Z" fill="#587307"></path><path d="M91.8747 14.53L93.1847 14.43C94.5473 14.2967 95.9184 14.2733 97.2847 14.36C98.5989 14.4242 99.9138 14.248 101.165 13.84C102.035 13.58 102.925 13.4 103.795 13.13C103.995 13.07 104.175 13.13 104.195 13.29C104.215 13.45 104.075 13.59 103.935 13.68C103.309 13.9497 102.733 14.3252 102.235 14.79C102.116 14.9146 101.963 15.0015 101.795 15.04C100.837 15.4196 99.8236 15.6424 98.7947 15.7C98.1047 15.7 97.4247 15.76 96.7947 15.7C95.1229 15.6349 93.4487 15.7287 91.7947 15.98C91.173 16.0449 90.5463 16.0449 89.9247 15.98C89.7047 15.98 89.4847 15.49 89.5947 15.28C89.5947 15.28 89.5947 15.16 89.6647 15.13C90.2285 14.6891 90.7007 14.1421 91.0547 13.52C91.0547 13.44 91.3547 13.43 91.5047 13.45C91.6547 13.47 91.6647 13.61 91.7047 13.71C91.7447 13.81 91.5547 14.26 91.8747 14.53Z" fill="#587307"></path><path d="M17.8244 60.2601C17.7344 60.2601 17.6144 60.1701 17.5644 60.0901C17.4473 59.8976 17.3597 59.6886 17.3044 59.4701C17.1944 58.9101 17.1244 58.3501 17.0244 57.7901C16.7395 55.9798 16.9113 54.1271 17.5244 52.4001C17.9144 51.2101 18.3644 50.0501 18.8544 48.9001C19.4144 47.5901 19.9044 46.2601 20.4344 44.9001C20.6044 44.4801 20.7844 44.0601 20.9844 43.6501C20.9844 43.5701 21.1544 43.5301 21.2544 43.4901C21.3377 43.4747 21.4238 43.4869 21.4995 43.5248C21.5753 43.5627 21.6367 43.6242 21.6744 43.7001C21.7531 43.8198 21.8031 43.9562 21.8204 44.0984C21.8378 44.2406 21.822 44.385 21.7744 44.5201C21.6644 44.7801 21.4244 45.0001 21.3644 45.2601C21.0344 46.8301 20.2944 48.2601 19.8444 49.7901C19.7195 50.1666 19.5691 50.5341 19.3944 50.8901C18.9124 51.9848 18.5762 53.138 18.3944 54.3201C18.0172 56.1887 17.8595 58.0949 17.9244 60.0001C17.9344 60.0601 17.8644 60.1601 17.8244 60.2601Z" fill="#587307"></path><path d="M95.9952 28.8001C95.7143 28.7526 95.43 28.7292 95.1452 28.7301C94.1191 28.779 93.0949 28.6014 92.1452 28.2101C90.7997 27.7486 89.3663 27.6015 87.9552 27.7801C85.8609 27.9939 83.8111 28.5233 81.8752 29.3501C81.7996 29.3872 81.7147 29.4013 81.6312 29.3907C81.5476 29.38 81.469 29.345 81.4052 29.2901C81.3088 29.1862 81.2496 29.0532 81.2369 28.9121C81.2243 28.7709 81.2588 28.6295 81.3352 28.5101C81.4887 28.3482 81.6597 28.204 81.8452 28.0801C83.5251 27.1168 85.3955 26.5331 87.3252 26.3701C87.6652 26.3701 87.9952 26.2501 88.3252 26.2001C88.4912 26.1804 88.6591 26.1804 88.8252 26.2001C89.2752 26.2601 89.7152 26.3501 90.1652 26.4101C91.4535 26.6386 92.7071 27.0318 93.8952 27.5801C94.5752 27.8601 95.2352 28.2001 95.8952 28.5301C95.9552 28.5301 95.8952 28.7201 95.9652 28.8201L95.9952 28.8001Z" fill="#587307"></path><path d="M132.544 13.78C132.494 13.88 132.474 14.03 132.404 14.06C132.144 14.1733 131.873 14.2572 131.594 14.31C131.082 14.3427 130.59 14.5195 130.174 14.82C129.985 14.9487 129.763 15.0215 129.534 15.03C127.96 15.2815 126.368 15.3986 124.774 15.38C124.257 15.3936 123.747 15.2582 123.304 14.99C123.222 14.9163 123.162 14.8213 123.13 14.7154C123.098 14.6095 123.096 14.4969 123.124 14.39C123.185 14.2323 123.273 14.0866 123.384 13.96C123.981 13.4301 124.406 12.7335 124.604 11.96C124.752 11.5288 124.936 11.1106 125.154 10.71C125.154 10.64 125.334 10.6 125.434 10.57C125.534 10.54 125.784 10.75 125.794 10.88C125.819 11.0458 125.819 11.2143 125.794 11.38C125.674 11.94 125.554 12.5 125.384 13.04C125.084 13.95 125.544 14.04 126.224 13.98C126.394 13.9953 126.565 13.9953 126.734 13.98C128.492 13.6942 130.276 13.6003 132.054 13.7C132.22 13.7131 132.383 13.7399 132.544 13.78Z" fill="#587307"></path><path d="M43.2851 28.0002C43.1751 29.2002 43.1251 30.2202 42.9951 31.2302C42.8409 32.6475 42.3167 33.9994 41.4751 35.1502C40.9651 35.8302 40.4751 36.5402 39.9751 37.2202C39.753 37.4752 39.505 37.7064 39.2351 37.9102C39.2194 37.9329 39.1985 37.9514 39.1742 37.9642C39.1498 37.9771 39.1226 37.9837 39.0951 37.9837C39.0675 37.9837 39.0404 37.9771 39.016 37.9642C38.9916 37.9514 38.9707 37.9329 38.9551 37.9102C38.9551 37.9102 38.9551 37.8002 38.9551 37.7702C39.4651 37.0202 39.7151 36.1302 40.2951 35.4102C40.5626 35.0454 40.7624 34.6356 40.8851 34.2002C41.531 32.4343 41.8987 30.5789 41.9751 28.7002C41.9751 27.8502 41.9751 27.0002 41.9751 26.1502C41.9751 26.0302 41.9751 25.9202 41.9751 25.8102C42.0001 25.7018 42.0612 25.6051 42.1484 25.536C42.2357 25.4669 42.3438 25.4296 42.4551 25.4302C42.5413 25.4299 42.6253 25.4569 42.6953 25.5071C42.7654 25.5574 42.8178 25.6284 42.8451 25.7102C43.0551 26.5002 43.1751 27.3402 43.2851 28.0002Z" fill="#587307"></path><path d="M135.144 27.5401C135.144 27.5401 135.054 27.6201 135.024 27.6201C133.955 27.4533 132.948 27.0084 132.104 26.3301C130.914 25.3499 129.662 24.448 128.354 23.6301C127.521 23.0291 126.559 22.6318 125.544 22.4701C125.376 22.4422 125.213 22.3847 125.064 22.3001C124.824 22.1801 124.814 21.9501 124.814 21.7201C124.815 21.6073 124.856 21.4983 124.929 21.4123C125.002 21.3264 125.103 21.2689 125.214 21.2501C126.649 21.1078 128.083 21.5272 129.214 22.4201C130.581 23.4444 131.865 24.5745 133.054 25.8001C133.329 26.0925 133.646 26.342 133.994 26.5401C134.439 26.7954 134.83 27.1351 135.144 27.5401Z" fill="#587307"></path><path d="M91.8643 38.7302C91.8643 38.9002 91.8643 39.0402 91.7743 39.1102C91.2088 39.7563 90.5313 40.2949 89.7743 40.7002C89.7743 40.7002 89.6343 40.7002 89.6143 40.7002C89.5393 40.6187 89.4875 40.5185 89.4643 40.4102C89.4462 40.2405 89.4644 40.0688 89.5179 39.9067C89.5714 39.7446 89.6588 39.5958 89.7743 39.4702C89.9114 39.3238 89.9877 39.1307 89.9877 38.9302C89.9877 38.7296 89.9114 38.5366 89.7743 38.3902C88.7743 37.1402 88.1143 35.7102 87.2243 34.3902C87.1572 34.2976 87.1253 34.1842 87.1343 34.0702C87.1538 33.91 87.216 33.7581 87.3143 33.6302C87.3143 33.5702 87.5243 33.6302 87.6243 33.6302C87.7363 33.6426 87.8431 33.684 87.9343 33.7502C88.7573 34.4469 89.4512 35.283 89.9843 36.2202C90.3118 36.8815 90.7478 37.4831 91.2743 38.0002C91.4883 38.229 91.6855 38.473 91.8643 38.7302Z" fill="#587307"></path><path d="M122.595 1.14009C122.475 1.62009 122.195 1.88009 121.735 1.78009C121.57 1.73831 121.397 1.73935 121.232 1.7831C121.068 1.82685 120.917 1.91186 120.795 2.03009C120.513 2.30895 120.246 2.6027 119.995 2.91009C119.442 3.56871 118.714 4.05752 117.895 4.32009C117.085 4.59009 116.265 4.82009 115.445 5.05009C115.222 5.10302 114.994 5.12655 114.765 5.12009C114.715 5.10443 114.668 5.07858 114.629 5.04416C114.589 5.00974 114.557 4.96749 114.535 4.92009C114.509 4.87237 114.496 4.81914 114.496 4.76509C114.496 4.71103 114.509 4.65781 114.535 4.61009C114.67 4.42712 114.844 4.27677 115.045 4.17009C115.725 3.87663 116.427 3.63592 117.145 3.45009C117.704 3.33433 118.212 3.04364 118.595 2.62009C119.285 1.87009 119.965 1.10009 120.645 0.340086C120.72 0.255168 120.8 0.175012 120.885 0.100086C121.005 0.0267972 121.144 -0.0119629 121.285 -0.0119629C121.426 -0.0119629 121.564 0.0267972 121.685 0.100086L122.595 1.14009Z" fill="#587307"></path><path d="M14.2545 21.68C14.1545 21.63 13.9945 21.61 13.9645 21.53C13.4381 20.5353 12.797 19.6056 12.0545 18.76C11.9104 18.5838 11.8048 18.3795 11.7445 18.16C11.7102 17.9985 11.7102 17.8315 11.7445 17.67C11.7445 17.56 12.0945 17.46 12.1845 17.52C12.3219 17.6131 12.4493 17.7204 12.5645 17.84C13.0045 18.37 13.4345 18.9 13.8445 19.44C14.5245 20.35 14.7345 20.27 15.2245 19.28C15.5761 18.6353 16.0246 18.0485 16.5545 17.54C16.741 17.3248 16.9713 17.152 17.2299 17.033C17.4886 16.914 17.7697 16.8516 18.0545 16.85C18.104 16.84 18.155 16.84 18.2045 16.85C18.2313 16.8614 18.2549 16.8791 18.2734 16.9016C18.2919 16.9241 18.3046 16.9508 18.3105 16.9793C18.3164 17.0078 18.3153 17.0373 18.3073 17.0653C18.2993 17.0933 18.2846 17.1189 18.2645 17.14C18.1745 17.28 18.0745 17.42 17.9745 17.55C17.179 18.4438 16.4661 19.4077 15.8445 20.43C15.4851 21.027 14.9195 21.4717 14.2545 21.68Z" fill="#587307"></path><path d="M28.325 28.6101C28.3018 28.4242 28.3018 28.2361 28.325 28.0501C28.4178 27.3232 28.5513 26.6021 28.725 25.8901C29.0544 24.7472 29.1963 23.5585 29.145 22.3701C29.0924 21.7513 28.9988 21.1366 28.865 20.5301C28.865 20.3601 28.865 20.1901 28.805 20.0301C28.745 19.8701 29.125 19.6501 29.315 19.7401C29.505 19.8301 29.745 19.9401 29.815 20.1601C30.2778 21.3194 30.4924 22.5628 30.445 23.8101C30.4154 24.6578 30.1785 25.4853 29.755 26.2201C29.3814 26.9208 29.0476 27.6419 28.755 28.3801C28.705 28.4801 28.495 28.5201 28.325 28.6101Z" fill="#587307"></path><path d="M80.0542 43.26C79.9942 43.33 79.9742 43.41 79.9342 43.42C78.4987 43.8858 76.9798 44.0376 75.4805 43.865C73.9812 43.6925 72.5365 43.1997 71.2442 42.42C71.1343 42.3289 71.0558 42.2055 71.0199 42.0673C70.984 41.9291 70.9925 41.7831 71.0442 41.65C71.0442 41.54 71.3442 41.37 71.4442 41.4C72.0342 41.59 72.6242 41.78 73.2142 41.99C74.8236 42.564 76.5079 42.9008 78.2142 42.99C78.4942 42.99 78.7742 43.05 79.0542 43.09L80.0542 43.26Z" fill="#587307"></path><path d="M114.515 28.1402C114.565 27.9402 114.615 27.7802 114.655 27.6102C114.695 27.4402 114.925 27.3102 115.045 27.3602C115.199 27.4181 115.344 27.499 115.475 27.6002C115.475 27.6002 115.475 27.7002 115.535 27.7602C115.812 29.2171 116.325 30.6189 117.055 31.9102C117.215 32.2102 117.375 32.5102 117.525 32.8202C117.675 33.1302 117.525 33.4202 117.165 33.6202C117.023 33.7051 116.872 33.7723 116.715 33.8202C116.625 33.8202 116.505 33.7502 116.405 33.7002C116.354 33.6773 116.312 33.6388 116.285 33.5902C115.517 32.1926 114.957 30.6899 114.625 29.1302C114.564 28.8033 114.527 28.4724 114.515 28.1402Z" fill="#587307"></path><path d="M10.925 45.9302C10.9103 46.94 10.7896 47.9455 10.565 48.9302C10.565 48.9302 10.465 48.9902 10.415 48.9902C10.3871 48.9978 10.3578 48.9989 10.3293 48.9935C10.3009 48.9881 10.2741 48.9762 10.251 48.9589C10.2278 48.9415 10.2089 48.9191 10.1958 48.8933C10.1826 48.8676 10.1755 48.8391 10.175 48.8102C10.2399 48.0749 10.2399 47.3354 10.175 46.6002C10.1021 44.7513 9.54334 42.9544 8.55499 41.3902C8.49496 41.2947 8.46694 41.1826 8.47499 41.0702C8.51054 40.9075 8.58616 40.7562 8.69499 40.6302C8.75936 40.5719 8.84312 40.5396 8.92999 40.5396C9.01685 40.5396 9.10061 40.5719 9.16499 40.6302C9.3505 40.76 9.50712 40.9268 9.62499 41.1202C10.1214 42.2096 10.51 43.345 10.785 44.5102C10.8595 44.9803 10.9063 45.4545 10.925 45.9302Z" fill="#587307"></path><path d="M149.554 21.8701C149.439 21.8616 149.325 21.8415 149.214 21.8101C148.884 21.6501 148.514 21.9101 148.214 21.8101C147.706 21.5623 147.218 21.2748 146.754 20.9501C146.435 20.7129 146.141 20.445 145.874 20.1501C145.803 20.0611 145.751 19.9582 145.722 19.848C145.693 19.7378 145.687 19.6227 145.704 19.5101C145.704 19.3201 145.834 19.1501 145.994 19.1501C147.009 19.0833 147.985 18.7372 148.814 18.1501C148.861 18.1202 148.913 18.1002 148.968 18.0916C149.023 18.0829 149.079 18.0857 149.132 18.0998C149.186 18.1139 149.236 18.139 149.279 18.1735C149.323 18.208 149.358 18.2511 149.384 18.3001C149.417 18.3743 149.433 18.4543 149.433 18.5351C149.433 18.616 149.417 18.696 149.384 18.7701C149.232 18.9356 149.053 19.0742 148.854 19.1801L147.684 19.8801C147.651 19.9032 147.624 19.9338 147.606 19.9695C147.587 20.0052 147.577 20.0449 147.577 20.0851C147.577 20.1254 147.587 20.165 147.606 20.2007C147.624 20.2364 147.651 20.2671 147.684 20.2901L148.844 21.0001C149.134 21.1801 149.434 21.3401 149.714 21.5301C149.749 21.5631 149.775 21.604 149.791 21.6492C149.807 21.6944 149.811 21.7427 149.804 21.7901C149.784 21.8001 149.644 21.8201 149.554 21.8701Z" fill="#587307"></path><path d="M108.624 34.16C107.353 34.2279 106.077 34.1474 104.824 33.92C104.265 33.8138 103.73 33.6072 103.244 33.31C102.734 33.05 102.244 32.71 101.794 32.41C101.705 32.3395 101.643 32.2406 101.617 32.1297C101.592 32.0187 101.605 31.9025 101.654 31.8C101.717 31.7041 101.806 31.6285 101.911 31.5823C102.016 31.5362 102.131 31.5215 102.244 31.54C102.405 31.593 102.562 31.6565 102.714 31.73C103.024 31.88 103.324 32.05 103.614 32.21C104.601 32.785 105.675 33.1938 106.794 33.42C107.298 33.5172 107.796 33.6441 108.284 33.8C108.404 33.84 108.484 34 108.624 34.16Z" fill="#587307"></path><path d="M116.625 21.7201C115.355 22.0001 114.325 21.8401 113.625 22.7201C113.798 23.3132 114.061 23.8764 114.405 24.3901C114.414 24.4397 114.411 24.4908 114.397 24.5394C114.383 24.5879 114.359 24.6326 114.325 24.6701C114.225 24.7106 114.114 24.7106 114.015 24.6701C113.853 24.6166 113.703 24.5316 113.575 24.4201C113.115 23.9301 112.655 23.4201 112.205 22.9201C112.105 22.7819 112.051 22.6157 112.051 22.4451C112.051 22.2745 112.105 22.1082 112.205 21.9701C112.385 21.7501 112.585 21.5401 112.765 21.3301C112.838 21.2404 112.931 21.1698 113.037 21.1245C113.144 21.0792 113.26 21.0605 113.375 21.0701C114.47 21.2226 115.555 21.4397 116.625 21.7201Z" fill="#587307"></path><path d="M92.9649 7.00002C92.9649 7.26002 92.9649 7.77002 92.8449 8.27002C92.7864 8.48274 92.6953 8.68513 92.5749 8.87002C92.5563 8.89102 92.5331 8.90738 92.507 8.91779C92.481 8.92821 92.4529 8.9324 92.4249 8.93002C92.3438 8.88022 92.2726 8.81579 92.2149 8.74002C92.2149 8.74002 92.2149 8.63002 92.2149 8.57002C92.3901 7.33622 92.2701 6.07847 91.8649 4.90002C91.8221 4.74007 91.7986 4.57557 91.7949 4.41002C91.7949 4.31002 91.8649 4.16002 91.9449 4.13002C92.095 4.08557 92.2548 4.08557 92.4049 4.13002C92.5132 4.16527 92.6096 4.22963 92.6837 4.31606C92.7578 4.4025 92.8066 4.50766 92.8249 4.62002C92.8946 5.00725 92.9446 5.39775 92.9749 5.79002C92.9849 6.07002 92.9649 6.41002 92.9649 7.00002Z" fill="#587307"></path><path d="M22.6548 22.2901L22.5748 22.4401C22.5281 22.3615 22.4912 22.2776 22.4648 22.1901C22.4648 22.1901 22.5148 22.0701 22.5448 22.0701C22.5748 22.0701 22.7248 22.1501 22.6548 22.2901Z" fill="#587307"></path><path d="M95.9648 28.84C96.0621 28.8062 96.1627 28.7827 96.2648 28.77C96.317 28.7785 96.3638 28.8072 96.3948 28.85C96.3948 28.98 96.3248 29.07 96.1948 29.02C96.0648 28.97 96.0648 28.87 95.9948 28.79L95.9648 28.84Z" fill="#587307"></path></g><defs><clipPath id="clip0_444:826"><rect width="160.91" height="120.26" fill="white" transform="translate(0.0546875)"></rect></clipPath></defs></svg>