<svg fill="none" height="95" viewBox="0 0 285 95" width="285" xmlns="http://www.w3.org/2000/svg" xmlns:xlink="http://www.w3.org/1999/xlink"><linearGradient id="a" gradientUnits="userSpaceOnUse" x1="240.002" x2="244.928" y1="29.6549" y2="13.3146"><stop offset="0" stop-color="#298a3a"/><stop offset="1" stop-color="#c4d848"/></linearGradient><linearGradient id="b"><stop offset="0" stop-color="#428f38"/><stop offset="1" stop-color="#b9d329"/></linearGradient><linearGradient id="c" gradientUnits="userSpaceOnUse" x1="217.118" x2="217.039" xlink:href="#b" y1="15.9842" y2="19.0432"/><linearGradient id="d" gradientUnits="userSpaceOnUse" x1="219.764" x2="219.71" xlink:href="#b" y1="20.8451" y2="22.9213"/><linearGradient id="e" gradientUnits="userSpaceOnUse" x1="215.092" x2="215.039" xlink:href="#b" y1="19.9212" y2="21.9975"/><linearGradient id="f" gradientUnits="userSpaceOnUse" x1="214.013" x2="213.954" xlink:href="#b" y1="6.79351" y2="9.08563"/><linearGradient id="g" gradientUnits="userSpaceOnUse" x1="217.11" x2="217.067" xlink:href="#b" y1="8.42399" y2="10.0866"/><linearGradient id="h" gradientUnits="userSpaceOnUse" x1="227.44" x2="227.398" xlink:href="#b" y1="15.2905" y2="16.9531"/><linearGradient id="i" gradientUnits="userSpaceOnUse" x1="254.251" x2="254.071" xlink:href="#b" y1="27.7598" y2="30.7029"/><linearGradient id="j" gradientUnits="userSpaceOnUse" x1="256.691" x2="256.569" xlink:href="#b" y1="32.6762" y2="34.6741"/><linearGradient id="k" gradientUnits="userSpaceOnUse" x1="252.044" x2="251.922" xlink:href="#b" y1="31.5899" y2="33.5879"/><linearGradient id="l" gradientUnits="userSpaceOnUse" x1="267.51" x2="267.33" xlink:href="#b" y1="18.5359" y2="21.4794"/><linearGradient id="m" gradientUnits="userSpaceOnUse" x1="271.487" x2="271.325" xlink:href="#b" y1="23.3351" y2="25.9864"/><linearGradient id="n" gradientUnits="userSpaceOnUse" x1="253.64" x2="253.478" xlink:href="#b" y1="17.3791" y2="20.0303"/><path d="m52.3835 69.8938c.5102-1.3072 1.0841-2.1681 1.7217-2.6782.6377-.4782 1.2116-.6377 1.6898-.4464s.7971.7334.9246 1.5942-.0638 2.0086-.5739 3.4115c-.9246 2.3912-2.168 4.6867-3.7622 6.9185-1.5941 2.2318-3.4752 4.1767-5.707 5.8665s-4.7505 2.9651-7.5881 3.794c-2.8376.829-5.9302 1.0522-9.2779.6377-4.2404-.5101-8.162-1.4347-11.7967-2.71-3.6346-1.2754-6.791-2.9333-9.43731-4.9419-2.67816-2.0086-4.75055-4.3679-6.28092-7.0461-1.530382-2.6144-2.29557-5.6433-2.29557-9.0228 0-1.9449.382594-3.7622 1.17967-5.452.79707-1.6898 1.88108-3.284 3.28393-4.7187s3.02887-2.7419 4.90996-3.9216c1.88104-1.1796 3.92164-2.168 6.12154-2.9332-1.4348-.7971-2.7738-1.6898-4.0492-2.7419-1.2753-1.0522-2.39117-2.2318-3.31577-3.539-.95649-1.3072-1.68979-2.7419-2.26368-4.3361-.5739-1.5941-.82896-3.3158-.82896-5.2288 0-4.3679.86084-8.1301 2.6144-11.2546 1.72167-3.1245 4.04911-5.7071 6.91861-7.7157 2.8694-2.0086 6.1852-3.5071 9.9155-4.49546 3.7303-.98837 7.5882-1.4985 11.6373-1.4985 2.6463 0 5.0694.3826 7.2374 1.14778 2.168.76519 4.0491 1.78548 5.6114 3.02888 1.5941 1.2434 2.8694 2.71 3.8897 4.3679 1.0202 1.658 1.6898 3.3796 2.0405 5.1013.6058 2.9651.542 5.5795-.1594 7.907-.7333 2.3274-1.8174 4.1128-3.2521 5.3882-1.4666 1.2753-3.1564 1.9767-5.1012 2.0723-1.9449.0957-3.826-.5738-5.6433-2.0086-.1594-.1275-.1275-.7014.0319-1.7535.1913-1.0522.3826-2.3594.5739-3.9216.1913-1.5623.3507-3.1883.4144-4.9419.0638-1.7535-.0956-3.3796-.4782-4.878-.4145-1.4985-1.1159-2.7739-2.1362-3.7941-1.0202-1.0203-2.5187-1.5304-4.4954-1.5623-1.7855 0-3.5071.3507-5.1332 1.0522-1.626.7014-3.0926 1.7854-4.3679 3.1883-1.2753 1.4347-2.2956 3.1882-3.0608 5.2925s-1.1478 4.5274-1.1478 7.3012c0 4.3998.6377 7.8432 1.913 10.33 1.2753 2.4869 2.997 4.2086 5.1969 5.1332 2.1999-.0319 4.3361.1594 6.4085.6057 1.5303.3508 2.6462.9565 3.3158 1.7855.7014.8289.9884 1.6579.8608 2.4868-.0956.829-.5739 1.5304-1.4028 2.1043-.829.5739-2.0086.7652-3.4753.542-2.5506-.3826-4.9099-.4782-7.1098-.3188s-4.1129.7014-5.7708 1.5623c-1.6579.8927-2.9651 2.1042-3.8897 3.7303-.9565 1.5941-1.4029 3.6346-1.4029 6.0896 0 2.1042.3507 4.1448 1.0522 6.1215.7014 1.9767 1.7535 3.7622 3.1245 5.3244 1.3709 1.5942 3.0607 2.9333 5.0693 4.0173 2.0087 1.084 4.3361 1.7854 6.9824 2.0724 2.1999.2231 4.3679.1275 6.5041-.3826 2.1361-.4783 4.1448-1.2754 5.9621-2.3594 1.8492-1.084 3.4752-2.3912 4.91-3.9853 1.4028-1.5942 2.4549-3.4115 3.1882-5.3882z" fill="#27573e"/><path d="m87.0719 76.0472c1.1159-2.0086 2.0086-2.71 2.6462-2.1361.6377.6057.6058 2.1361-.1275 4.623-.6695 2.1361-1.7536 4.1448-3.2202 5.994-1.4985 1.8492-3.3158 3.3795-5.4838 4.623-2.1681 1.2434-4.6549 2.1043-7.3968 2.6144-2.7738.4782-5.7071.4145-8.8954-.2232-2.6462-.542-5.0374-1.5941-7.1098-3.1883-2.1043-1.5622-3.7941-3.5709-5.1013-5.994s-2.1999-5.2288-2.6782-8.3852c-.4463-3.1564-.3507-6.5997.3189-10.3619.5101-2.997 1.4985-5.707 2.9651-8.162s3.1564-4.5274 5.1331-6.2172c1.9768-1.6897 4.081-3.0288 6.3447-3.9853s4.4955-1.4666 6.6954-1.5623c2.1999-.0637 4.2404.3507 6.1534 1.2435 1.913.8927 3.4434 2.3593 4.623 4.3998.9565 1.626 1.4666 3.4115 1.4985 5.3244.0319 1.9449-.2869 3.6347-.8927 5.1332s-1.4985 2.5825-2.6144 3.2839-2.3593.6377-3.7622-.1594c-.7014-.3826-1.2115-1.0203-1.4985-1.9767-.2869-.9565-.5101-1.9449-.6695-3.0289-.1913-1.084-.3507-2.1681-.4783-3.2521-.1594-1.084-.4463-1.9767-.9246-2.6462-.7651-1.2116-1.5941-1.658-2.4549-1.371-.8609.3188-1.6898 1.1797-2.4869 2.6463s-1.4985 3.4114-2.168 5.8345c-.6377 2.4231-1.1159 5.1969-1.4348 8.2577-.3507 3.2839-.1913 6.0577.5102 8.3214.7014 2.2637 1.7216 4.0491 3.0607 5.3882 1.3391 1.3072 2.8695 2.1999 4.6549 2.5825 1.7855.3826 3.6028.3826 5.3882-.0637 1.8173-.4464 3.539-1.3072 5.2288-2.5825 1.7217-1.3391 3.0926-2.9652 4.1767-4.9738z" fill="#27573e"/><path d="m127.085 68.4272c.447-.2232 1.021-.5739 1.658-1.0521.638-.4464 1.276-.8927 1.913-1.3391.638-.4464 1.212-.8289 1.722-1.1797.51-.3507.893-.5101 1.148-.5101.829 0 1.275.542 1.371 1.626.063.3508-.192.8609-.734 1.5304-.542.6696-1.211 1.371-2.072 2.1362-.829.7652-1.785 1.4985-2.838 2.2637-1.052.7651-2.072 1.3709-3.092 1.9129-.702 2.9332-1.786 5.7389-3.22 8.3852-1.435 2.6463-3.189 4.91-5.261 6.7911s-4.432 3.252-7.078 4.1447c-2.646.8928-5.484 1.0203-8.545.4145-2.7097-.4782-5.1647-1.5304-7.3327-3.1245-2.168-1.5623-3.9535-3.6028-5.3244-6.0896-1.371-2.4869-2.2956-5.4201-2.7738-8.7678-.4783-3.3477-.3826-7.1099.2869-11.2228.4145-2.5506 1.1478-4.9099 2.1999-7.1099 1.0521-2.1999 2.2956-4.1447 3.7303-5.8664s3.0289-3.1564 4.7824-4.368c1.7536-1.2115 3.5714-2.0723 5.3884-2.6144 1.626-.5101 2.774-.6057 3.411-.3507.638.2551.989.7015 1.084 1.2754.064.5738-.032 1.1796-.319 1.8173-.286.6376-.51 1.0521-.637 1.2753-.447.7333-.989 1.7217-1.626 2.9013-.606 1.2116-1.18 2.5825-1.722 4.1129s-.988 3.2521-1.371 5.1013c-.382 1.8492-.637 3.8259-.733 5.8983-.16 2.5825-.096 5.0694.159 7.4606s.67 4.4955 1.307 6.3128c.606 1.8173 1.403 3.2839 2.328 4.3679.956 1.0841 2.04 1.658 3.252 1.6898 2.264.0638 4.177-.8289 5.771-2.6462 1.594-1.8174 2.774-4.368 3.603-7.6519-2.966.0956-5.293-.542-7.015-1.8811-1.721-1.3391-2.965-2.997-3.762-5.0056s-1.18-4.2086-1.18-6.5679c0-2.3912.256-4.6549.734-6.791.478-2.1362 1.116-4.0173 1.913-5.5795.797-1.5623 1.626-2.5507 2.487-2.9651 1.53-.7334 3.284-.7652 5.197-.1276 1.944.6377 3.762 1.8492 5.451 3.5709 1.69 1.7536 3.093 3.9535 4.209 6.6316 1.116 2.6782 1.658 5.7071 1.594 9.0548v1.0521c.032.2869 0 .6695-.064 1.084zm-15.782-16.0371c-.318.5102-.574 1.3072-.829 2.3594-.255 1.0521-.414 2.2637-.414 3.5709-.032 1.339.064 2.71.319 4.1128.223 1.4029.669 2.7101 1.307 3.9216.638 1.1797 1.498 2.2 2.614 3.0289 1.084.829 2.487 1.2753 4.177 1.3391.159-1.5623.223-3.1883.223-4.9419 0-3.2839-.255-6.0577-.765-8.2576-.51-2.2318-1.148-3.8897-1.913-5.0056s-1.562-1.6579-2.423-1.6579c-.861-.0319-1.626.4782-2.296 1.5303z" fill="#27573e"/><path d="m154.026 83.1252c1.084-1.3391 2.072-2.2318 2.997-2.6144.924-.3826 1.594-.4145 2.04 0 .447.3826.51 1.1478.255 2.2318s-.988 2.4868-2.231 4.1129c-.702.9883-1.69 1.9767-2.966 2.9013-1.243.9246-2.614 1.7217-4.112 2.3912-1.499.6696-3.029 1.1797-4.687 1.5623-1.626.3826-3.189.4782-4.687.3188-2.774-.3188-4.878-1.5941-6.281-3.8578-1.435-2.2318-2.455-5.165-3.093-8.7359-.637-3.5709-.988-7.6519-1.02-12.243-.064-4.5912-.064-9.4055 0-14.4111.064-2.6463.16-5.5476.351-8.704s.414-6.2809.733-9.4373.638-6.1853 1.02-9.1504c.383-2.9332.766-5.5476 1.148-7.8432.383-2.2956.765-4.1448 1.148-5.5795s.733-2.2318 1.02-2.3274c3.22-1.3391 5.899-2.00867 8.035-2.00867s3.762.63767 4.846 1.91297 1.658 3.0926 1.69 5.4839c.032 2.3912-.479 5.2925-1.499 8.704-1.626 5.3563-2.965 10.9358-3.985 16.7066s-1.754 11.2228-2.168 16.3559c-.447 5.1331-.574 9.788-.447 13.9009.128 4.1129.542 7.2056 1.276 9.2779.414 1.2116.988 2.1681 1.753 2.9014.766.7333 1.626 1.2115 2.615 1.3709.988.1913 2.008.0319 3.061-.4463 1.115-.5101 2.168-1.4347 3.188-2.7738z" fill="#27573e"/><path d="m175.802 82.9339c.957-1.2434 1.913-2.0405 2.838-2.3912.924-.3507 1.594-.3507 2.072.0637.446.4145.574 1.1159.383 2.1362-.192 1.0202-.957 2.2956-2.232 3.7941-.829.8927-1.786 1.7854-2.902 2.6781-1.115.8927-2.359 1.6579-3.73 2.3275-1.339.6695-2.774 1.1796-4.24 1.5303-1.499.3507-2.965.4783-4.464.3508-2.774-.2232-4.942-1.2435-6.568-3.0289-1.626-1.7855-2.805-4.2086-3.602-7.2693-.798-3.0608-1.244-6.6635-1.308-10.8402-.095-4.1766.064-8.7359.415-13.6777.095-1.4985.159-2.997.191-4.4955s.064-2.8695.159-4.1129c.064-1.2434.192-2.2956.351-3.1883.16-.8927.447-1.4985.829-1.7854 2.487-1.8811 4.719-2.997 6.696-3.4115 1.976-.4145 3.57-.1275 4.782.7971s2.009 2.5187 2.391 4.7505c.351 2.2637.223 5.1332-.446 8.6403-.67 3.5709-1.148 6.7273-1.499 9.4692-.318 2.7738-.542 5.1969-.605 7.2693-.064 2.1042-.032 3.8897.127 5.3563.16 1.4985.383 2.7419.702 3.7622.191.8608.669 1.5941 1.371 2.2637.701.6695 1.53 1.1159 2.454 1.4028.925.2869 1.882.2551 2.902-.0956 1.052-.3508 2.008-1.1159 2.933-2.2956zm-5.675-55.9544c.765 1.6579 1.052 3.1564.893 4.5592-.192 1.4029-.638 2.6463-1.403 3.6984-.765 1.084-1.786 1.913-3.029 2.5188-1.244.6058-2.551.9883-3.954 1.084-1.371.0956-2.742-.0957-4.144-.6058-1.371-.5101-2.615-1.3709-3.667-2.6463-1.339-1.5303-1.594-3.2839-.765-5.2287.829-1.9449 2.774-3.7941 5.898-5.6114.765-.4783 1.594-.9246 2.487-1.3391.893-.4464 1.786-.6695 2.678-.7014.893-.0319 1.754.255 2.615.8289.829.6696 1.626 1.7855 2.391 3.4434z" fill="#27573e"/><path d="m213.839 67.3112c.956-.6058 1.913-1.3072 2.869-2.0724s1.785-1.4029 2.551-1.9768c.765-.5738 1.402-.9246 1.944-1.084s.893.0638 1.116.6377c.16.3826-.032.9565-.574 1.7217s-1.275 1.5941-2.263 2.5187c-.957.8927-2.104 1.7854-3.412 2.6463-1.307.8608-2.646 1.5941-4.081 2.1361-1.434 3.0289-3.124 5.8027-5.101 8.3215-1.977 2.5187-4.049 4.6867-6.217 6.5041-2.168 1.8173-4.336 3.2201-6.504 4.2085s-4.145 1.4028-5.93 1.2434c-2.965-.1913-5.58-1.339-7.812-3.4114-2.263-2.0724-3.762-5.0694-4.527-8.991-.733-3.539-1.18-7.3331-1.403-11.3184-.223-3.9854-.255-7.6519-.127-11.0315.127-3.3796.35-6.1853.701-8.4489.351-2.2637.733-3.5072 1.148-3.7303 2.997-1.5623 5.547-2.2956 7.588-2.2956 2.04.0319 3.603.6377 4.719 1.8492 1.084 1.2116 1.753 2.9332 1.913 5.165.191 2.2318-.064 4.8143-.702 7.7157-.606 2.5506-.956 5.5157-1.02 8.8315-.064 3.3159.064 6.5041.446 9.533.415 3.539 1.148 6.1853 2.232 7.9388 1.084 1.7536 2.264 2.0724 3.539.9884 1.18-1.0521 2.359-2.6463 3.603-4.7824 1.211-2.1681 2.327-4.5912 3.284-7.3331-2.136-.6376-3.89-1.7854-5.197-3.4752-1.339-1.6898-2.296-3.6347-2.87-5.8027-.605-2.1999-.861-4.4955-.829-6.9186s.351-4.6868.957-6.791c.574-2.1043 1.403-3.8897 2.487-5.3882s2.295-2.3912 3.666-2.7419c1.722-.4464 3.412-.6696 5.006-.6696s3.061.2551 4.4.7971 2.455 1.3391 3.411 2.455c.957 1.1159 1.658 2.5825 2.104 4.4317.766 3.252 1.021 6.4403.798 9.533-.351 3.1245-.957 6.1533-1.913 9.0866zm-13.901-22.1267c-1.212.8927-2.137 2.4231-2.742 4.5911-.606 2.168-.829 4.5274-.67 7.0142.16 2.4869.765 4.8462 1.817 7.078 1.053 2.2318 2.615 3.826 4.719 4.7506.415-1.5304.702-3.0608.925-4.6549.191-1.5623.287-3.0927.287-4.5912 0-5.9302-.479-9.9793-1.371-12.1154-.925-2.1362-1.913-2.8376-2.965-2.0724z" fill="#27573e"/><path d="m257.199 66.801c.574-.9883 1.052-1.6898 1.531-2.0724.446-.3825.829-.4782 1.115-.2869.287.1913.415.6695.383 1.371-.032.7333-.223 1.6579-.574 2.8375-.669 2.0724-1.945 4.2086-3.858 6.4085s-4.113 4.2404-6.599 6.1215c-2.487 1.8811-5.07 3.4115-7.78 4.623-2.678 1.2116-5.197 1.8173-7.46 1.8492-2.71 0-5.102-.542-7.174-1.6579-2.104-1.1159-3.794-2.7419-5.133-4.8781-1.339-2.1361-2.2-4.7505-2.646-7.8113-.447-3.0607-.351-6.536.255-10.33.446-2.7738 1.402-5.3563 2.805-7.7475 1.435-2.3913 3.125-4.5274 5.07-6.4085s4.081-3.4115 6.376-4.5911c2.296-1.2116 4.528-1.9449 6.728-2.2637 2.199-.3188 4.24-.1594 6.153.4782 1.913.6058 3.443 1.7855 4.623 3.539 1.275 1.9449 1.753 4.2086 1.498 6.7911-.287 2.6144-1.179 5.2925-2.678 8.0663-1.498 2.7738-3.507 5.452-6.057 8.0026-2.551 2.5507-5.452 4.6868-8.705 6.3766-.095.0638-.191.1275-.318.1913.669 1.2115 1.562 2.0405 2.71 2.4869 1.147.4463 2.423.6057 3.826.4782 1.402-.1275 2.869-.542 4.399-1.2115 1.531-.6696 2.997-1.4985 4.464-2.5507 1.435-1.0521 2.774-2.2318 3.985-3.5708 1.212-1.371 2.232-2.7739 3.061-4.2405zm-23.88-2.1361c-.255 2.2637-.255 4.2723 0 6.0258 2.04-1.6898 3.73-3.6984 5.069-6.0258 1.339-2.3275 2.36-4.623 3.061-6.9186.67-2.2637 1.052-4.368 1.116-6.249.064-1.913-.191-3.284-.765-4.1448-.574-.9246-1.244-1.2116-2.073-.8927-.829.3188-1.626 1.2115-2.455 2.6781s-1.562 3.5071-2.295 6.1215c-.702 2.5825-1.275 5.739-1.658 9.4055z" fill="#27573e"/><g clip-rule="evenodd" fill-rule="evenodd"><path d="m220.724 18.9707c3.667 2.8375 6.249 8.4808 6.982 13.7096-9.883-3.9535-23.051-10.9358-17.535-30.1612 4.591 6.53599 26.08 11.446 24.199 27.7381 10.234-23.01943 39.853-8.704 50.63-12.1793-9.437 26.2078-29.811 22.5412-44.03 18.3646 5.069-5.1969 12.498-9.2461 18.906-9.2461-9.692-2.8375-18.588.7971-26.303 8.1939-.542.542-.702.7333-1.02 1.3072l-.032-.255c-.989-6.7273-3.794-14.2836-11.797-17.4718z" fill="#18341a"/><path d="m219.959 16.2921c3.635 2.8376 6.186 8.4171 6.919 13.614-9.788-3.8897-22.86-10.8402-17.408-29.9061 4.527 6.5041 25.889 11.3822 24.04 27.5468 10.17-22.86002 39.566-8.6403 50.279-12.0836-9.374 25.9845-29.587 22.3818-43.68 18.237 5.038-5.165 12.435-9.1823 18.779-9.1823-9.596-2.8376-18.428.7971-26.112 8.1301-.542.5421-.701.7015-1.02 1.3072l-.032-.255c-1.084-6.7592-3.858-14.2198-11.765-17.4081z" fill="url(#a)"/><path d="m272.215 26.2081-.542.5739c-2.838 2.9651-6.472 5.2607-11.063 6.3128-5.006 1.1478-10.394.6695-15.655-.4464l-.127.0957c5.994 1.4985 12.211 2.2956 17.95.9884 8.736-2.0087 13.869-8.4171 17.057-15.4632-.797 0-1.626 0-2.455-.0638-1.307 2.8695-2.997 5.6433-5.165 8.0026z" fill="#3b9239"/><path d="m237.494 26.5907c5.675-4.2086 12.721-6.7273 21.011-4.9737l-1.467-.3508c-6.695-1.5941-12.593-.4144-17.631 2.2318-.733.9246-1.371 1.9449-1.913 3.0927z" fill="#3b9239"/><path d="m210.999 12.1478c.479 2.5506 1.531 5.0375 3.412 7.3331 2.359 2.8694 5.611 4.9418 9.087 6.5997l-.064-.1913c-2.838-1.5304-5.484-3.3796-7.493-5.8027-1.721-2.0724-2.742-4.336-3.284-6.6316l-.382-2.5188 8.481 3.3796c.127.0319.223.0957.35.1276l-8.831-3.539c-.16-1.78547-.032-3.6028.223-5.38824-.478-.31883-.988-.66954-1.467-1.02025-.318 1.88109-.446 3.85783-.287 5.77079z" fill="#3b9239"/><path d="m230.703 24.3907c-1.753-5.0694-5.005-9.6924-10.744-12.3068l1.02.4464c4.719 2.0086 7.812 5.3244 9.82 9.1504.064.8608.032 1.7854-.096 2.71z" fill="#3b9239"/><path d="m218.716 17.0896c.032.1275.063.255.063.3826.096 1.0521-.573 1.8811-1.498 1.8811-.925-.0319-1.785-.8928-1.881-1.9449 0-.1275 0-.2551 0-.3826v.0319c.096 1.0203.925 1.8811 1.849 1.913.925.0319 1.562-.7971 1.467-1.8174z" fill="#1c582f"/><path d="m216.898 15.3361c.925.0318 1.754.8927 1.849 1.9129.096 1.0203-.573 1.8492-1.498 1.8174-.925-.0319-1.754-.8928-1.849-1.913-.096-1.0203.574-1.8173 1.498-1.8173z" fill="url(#c)"/><path d="m220.852 21.617c.032.0956.032.1594.064.2551.063.7014-.383 1.2753-1.021 1.2753-.637-.0319-1.211-.6058-1.275-1.3391 0-.0957 0-.1594 0-.2551v.0319c.064.7014.638 1.2753 1.244 1.3072.605 0 1.052-.542.988-1.2753z" fill="#1c582f"/><path d="m219.608 20.4053c.638.0319 1.212.6058 1.275 1.3072.064.7015-.382 1.2753-1.02 1.2435-.638-.0319-1.211-.6058-1.275-1.3072-.064-.7015.414-1.2435 1.02-1.2435z" fill="url(#d)"/><path d="m216.197 20.6924c.032.0956.032.1594.063.255.064.7015-.382 1.2753-1.02 1.2753-.637-.0318-1.211-.6057-1.275-1.339 0-.0957 0-.1595 0-.2551v.0319c.064.7014.638 1.2753 1.243 1.3072.606 0 1.052-.542.989-1.2753z" fill="#1c582f"/><path d="m214.953 19.4808c.638.0319 1.212.6058 1.275 1.3072.064.7015-.382 1.2753-1.02 1.2435-.638-.0319-1.211-.6058-1.275-1.3072-.064-.7015.382-1.2435 1.02-1.2435z" fill="url(#e)"/><path d="m215.208 7.62041c.032.09564.032.19129.064.28694.064.79707-.414 1.43473-1.116 1.40285-.701-.03189-1.339-.66954-1.403-1.46661 0-.09565 0-.1913 0-.28695v.03188c.064.76519.702 1.43473 1.371 1.43473.702.03188 1.18-.60577 1.116-1.37096z" fill="#1c582f"/><path d="m213.837 6.31316c.702.03188 1.308.66954 1.403 1.43473.064.76519-.414 1.40284-1.116 1.37096-.701-.03188-1.307-.66954-1.403-1.43473-.095-.76519.447-1.40285 1.116-1.37096z" fill="url(#f)"/><path d="m217.982 9.02307c.032.06377.032.12753.032.22318.064.57389-.319 1.02025-.829 1.02025s-.956-.47824-1.02-1.05213c0-.06377 0-.12753 0-.1913v.03188c.064.5739.51 1.02025.988 1.05215.542-.0319.893-.47825.829-1.08403z" fill="#1c582f"/><path d="m216.994 8.06671c.51 0 .956.47824 1.02 1.05214.064.57389-.319 1.02025-.797.98835-.51 0-.956-.47823-1.02-1.05212-.064-.54201.287-.98837.797-.98837z" fill="url(#g)"/><path d="m228.312 15.9099c.032.0638.032.1275.032.2232.064.5739-.319 1.0202-.829 1.0202s-.957-.4782-1.02-1.0521c0-.0638 0-.1275 0-.1913v.0319c.063.5739.51 1.0202.988 1.0521.542-.0637.893-.5101.829-1.084z" fill="#1c582f"/><path d="m227.324 14.9534c.51 0 .956.4782 1.02 1.0521s-.319 1.0203-.797.9884c-.51 0-.957-.4783-1.02-1.0521-.064-.5739.286-1.0203.797-.9884z" fill="url(#h)"/><path d="m255.828 28.8862c.031.1276.031.2551.063.3826.064 1.0522-.669 1.8492-1.594 1.8174-.924-.0638-1.753-.9565-1.785-2.0087 0-.1275 0-.255 0-.3826v.0319c.063 1.0203.861 1.913 1.753 1.9768.925.0637 1.626-.7333 1.563-1.7855z" fill="#1c582f"/><path d="m254.074 27.0689c.925.0637 1.722.9565 1.786 1.9767.063 1.0203-.638 1.8173-1.595 1.7536-.924-.0638-1.721-.9565-1.785-1.9768-.032-1.0202.67-1.8173 1.594-1.7535z" fill="url(#i)"/><path d="m257.772 33.4454c.032.0957.032.1594.032.2551.032.7014-.446 1.2753-1.084 1.2115-.638-.0318-1.18-.6376-1.212-1.3709 0-.0957 0-.1594 0-.2551v.0319c.032.7014.574 1.3072 1.212 1.3391.606.0637 1.084-.4783 1.052-1.2116z" fill="#1c582f"/><path d="m256.561 32.202c.637.0318 1.179.6376 1.211 1.339.032.7015-.446 1.2435-1.084 1.2116s-1.18-.6377-1.211-1.3391c0-.7014.478-1.2434 1.084-1.2115z" fill="url(#j)"/><path d="m253.117 32.3614c.032.0957.032.1595.032.2551.032.7014-.446 1.2753-1.084 1.2116-.638-.0319-1.18-.6377-1.211-1.371 0-.0957 0-.1594 0-.2551v.0319c.031.7014.573 1.3072 1.211 1.3391.606.0638 1.084-.4783 1.052-1.2116z" fill="#1c582f"/><path d="m251.938 31.1179c.638.0319 1.18.6377 1.212 1.3391.031.7014-.447 1.2434-1.084 1.2115-.638-.0318-1.18-.6376-1.212-1.339-.032-.7015.446-1.2435 1.084-1.2116z" fill="url(#k)"/><path d="m269.09 19.6721c.032.1276.032.2551.064.3826.064 1.0522-.67 1.8492-1.594 1.8173-.925-.0318-1.754-.9564-1.786-2.0086 0-.1275 0-.255 0-.3826v.0319c.064 1.0203.861 1.913 1.754 1.9768.925.0637 1.626-.7334 1.562-1.7855z" fill="#1c582f"/><path d="m267.337 17.8548c.924.0637 1.722.9565 1.785 1.9767.064 1.0203-.637 1.8173-1.594 1.7536-.924-.0638-1.721-.9565-1.785-1.9768-.032-1.0202.669-1.8173 1.594-1.7535z" fill="url(#l)"/><path d="m272.917 24.3588c.032.1276.032.2232.064.3507.063.9565-.606 1.6898-1.435 1.6261-.829-.0638-1.562-.8609-1.626-1.8173 0-.1276 0-.2232 0-.3508v.0319c.064.9246.765 1.7217 1.594 1.7855.829.0637 1.467-.6696 1.403-1.5942z" fill="#1c582f"/><path d="m271.322 22.7328c.829.0638 1.562.8609 1.594 1.7855.064.9246-.574 1.6579-1.434 1.5941-.829-.0637-1.563-.8608-1.595-1.7854-.032-.9565.606-1.6579 1.435-1.5942z" fill="url(#m)"/><path d="m255.062 18.3968c.032.1275.032.2232.064.3507.063.9565-.606 1.6898-1.435 1.626-.829-.0637-1.562-.8608-1.626-1.8173 0-.1275 0-.2232 0-.3507v.0319c.064.9246.765 1.7217 1.594 1.7854.829.0638 1.467-.6695 1.403-1.5941z" fill="#1c582f"/><path d="m253.468 16.7708c.829.0637 1.562.8608 1.594 1.7854.064.9246-.574 1.6579-1.434 1.5942-.829-.0638-1.563-.8609-1.595-1.7855s.606-1.6579 1.435-1.5941z" fill="url(#n)"/></g></svg>