<svg fill="none" height="51" viewBox="0 0 154 51" width="154" xmlns="http://www.w3.org/2000/svg" xmlns:xlink="http://www.w3.org/1999/xlink"><linearGradient id="a" gradientUnits="userSpaceOnUse" x1="129.792" x2="132.442" y1="15.9537" y2="7.16299"><stop offset="0" stop-color="#298a3a"/><stop offset="1" stop-color="#c4d848"/></linearGradient><linearGradient id="b"><stop offset="0" stop-color="#428f38"/><stop offset="1" stop-color="#b9d329"/></linearGradient><linearGradient id="c" gradientUnits="userSpaceOnUse" x1="117.481" x2="117.439" xlink:href="#b" y1="8.5992" y2="10.2449"/><linearGradient id="d" gradientUnits="userSpaceOnUse" x1="118.905" x2="118.876" xlink:href="#b" y1="11.2142" y2="12.3312"/><linearGradient id="e" gradientUnits="userSpaceOnUse" x1="116.391" x2="116.362" xlink:href="#b" y1="10.7171" y2="11.8341"/><linearGradient id="f" gradientUnits="userSpaceOnUse" x1="115.81" x2="115.779" xlink:href="#b" y1="3.65479" y2="4.8879"/><linearGradient id="g" gradientUnits="userSpaceOnUse" x1="117.477" x2="117.454" xlink:href="#b" y1="4.53193" y2="5.42639"/><linearGradient id="h" gradientUnits="userSpaceOnUse" x1="123.035" x2="123.012" xlink:href="#b" y1="8.22602" y2="9.12048"/><linearGradient id="i" gradientUnits="userSpaceOnUse" x1="137.457" x2="137.361" xlink:href="#b" y1="14.9342" y2="16.5175"/><linearGradient id="j" gradientUnits="userSpaceOnUse" x1="138.771" x2="138.705" xlink:href="#b" y1="17.5791" y2="18.6539"/><linearGradient id="k" gradientUnits="userSpaceOnUse" x1="136.27" x2="136.204" xlink:href="#b" y1="16.9947" y2="18.0696"/><linearGradient id="l" gradientUnits="userSpaceOnUse" x1="144.591" x2="144.494" xlink:href="#b" y1="9.97186" y2="11.5554"/><linearGradient id="m" gradientUnits="userSpaceOnUse" x1="146.73" x2="146.643" xlink:href="#b" y1="12.5538" y2="13.9802"/><linearGradient id="n" gradientUnits="userSpaceOnUse" x1="137.129" x2="137.042" xlink:href="#b" y1="9.34961" y2="10.7759"/><path d="m28.8571 37.6014c.2744-.7032.5832-1.1663.9262-1.4408.3431-.2572.6518-.343.9091-.2401s.4288.3945.4974.8576-.0343 1.0806-.3087 1.8353c-.4975 1.2865-1.1664 2.5214-2.024 3.7221s-1.8696 2.2469-3.0703 3.156-2.5557 1.5952-4.0822 2.0411c-1.5266.446-3.1904.5661-4.9914.3431-2.2812-.2744-4.391-.7719-6.3463-1.458-1.95541-.686-3.65349-1.578-5.07714-2.6586-1.4408-1.0806-2.5557-2.3498-3.37901-3.7906-.82331-1.4065-1.234969-3.036-1.234969-4.8541 0-1.0463.205828-2.024.634639-2.9331.42881-.9091 1.01199-1.7667 1.76669-2.5385.7547-.7719 1.62947-1.4751 2.64146-2.1098 1.01199-.6346 2.10974-1.1663 3.29325-1.578-.77186-.4288-1.49225-.9091-2.17835-1.4751-.68609-.566-1.28642-1.2007-1.78384-1.9039-.51457-.7033-.90908-1.4751-1.21782-2.3327s-.44596-1.7839-.44596-2.813c0-2.3499.46311-4.3739 1.40649-6.0548.92623-1.68092 2.17835-3.07026 3.72206-4.15086 1.5437-1.0806 3.3276-1.88676 5.3344-2.41848s4.0822-.80616 6.2606-.80616c1.4236 0 2.7272.20583 3.8936.61748 1.1663.41166 2.1783.96054 3.0188 1.62948.8576.66894 1.5437 1.45795 2.0926 2.34987.5488.89192.909 1.81817 1.0977 2.74437.3259 1.5952.2916 3.0017-.0857 4.2538-.3945 1.2521-.9777 2.2126-1.7496 2.8987-.789.6861-1.6981 1.0635-2.7444 1.1149-1.0463.0515-2.0582-.3087-3.0359-1.0806-.0858-.0686-.0686-.3773.0171-.9433.1029-.5661.2059-1.2693.3088-2.1098.1029-.8404.1886-1.7152.223-2.6586.0343-.9434-.0515-1.8181-.2573-2.6243-.223-.80616-.6004-1.49226-1.1492-2.04113-.5489-.54888-1.3551-.82332-2.4185-.84047-.9606 0-1.8868.18868-2.7615.56603-.8748.37735-1.6638.96053-2.3499 1.71523-.6861.77184-1.235 1.71524-1.6466 2.84734-.4117 1.132-.6175 2.4356-.6175 3.9278 0 2.3671.343 4.2195 1.0291 5.5574s1.6123 2.2641 2.7958 2.7615c1.1836-.0171 2.3328.0858 3.4477.3259.8233.1887 1.4236.5146 1.7838.9606.3774.4459.5317.8919.4631 1.3378-.0514.446-.3087.8233-.7547 1.1321-.4459.3087-1.0806.4116-1.8696.2916-1.3722-.2058-2.6414-.2573-3.825-.1715-1.1835.0857-2.2126.3773-3.1045.8404-.892.4803-1.5952 1.1321-2.09262 2.0068-.51457.8577-.7547 1.9554-.7547 3.2761 0 1.1321.18867 2.2298.56602 3.2933.3774 1.0634.9434 2.024 1.6809 2.8644.7376.8577 1.6467 1.578 2.7273 2.1612s2.3327.9606 3.7563 1.1149c1.1835.1201 2.3499.0686 3.4991-.2058 1.1492-.2573 2.2298-.6861 3.2075-1.2693.9948-.5831 1.8696-1.2864 2.6414-2.144.7548-.8576 1.3208-1.8353 1.7153-2.8988z" fill="#fff"/><path d="m47.5187 40.9118c.6004-1.0806 1.0806-1.4579 1.4237-1.1492.343.3259.3259 1.1492-.0686 2.4871-.3602 1.1492-.9434 2.2298-1.7324 3.2247-.8062.9948-1.7839 1.8181-2.9502 2.487-1.1664.669-2.5043 1.1321-3.9794 1.4065-1.4922.2573-3.0702.223-4.7855-.12-1.4236-.2916-2.71-.8576-3.8249-1.7153-1.1321-.8404-2.0412-1.921-2.7444-3.2246-.7033-1.3036-1.1835-2.813-1.4408-4.5111-.2401-1.698-.1887-3.5505.1715-5.5745.2744-1.6123.8062-3.0702 1.5952-4.391.789-1.3207 1.6981-2.4356 2.7615-3.3447s2.1955-1.6295 3.4133-2.144c1.2178-.5146 2.4185-.789 3.602-.8405 1.1835-.0343 2.2813.1887 3.3104.669 1.0292.4802 1.8525 1.2692 2.4871 2.367.5146.8747.789 1.8353.8062 2.8644.0171 1.0463-.1544 1.9554-.4803 2.7615-.3259.8062-.8062 1.3894-1.4065 1.7667-.6003.3774-1.2693.3431-2.024-.0857-.3773-.2059-.6518-.5489-.8061-1.0635-.1544-.5145-.2745-1.0463-.3602-1.6294-.1029-.5832-.1887-1.1664-.2573-1.7496-.0858-.5832-.2401-1.0634-.4974-1.4236-.4117-.6518-.8576-.892-1.3208-.7376-.4631.1715-.909.6347-1.3378 1.4237-.4289.789-.8062 1.8353-1.1664 3.1388-.3431 1.3036-.6003 2.7959-.7719 4.4425-.1886 1.7667-.1029 3.2589.2745 4.4768.3773 1.2178.9262 2.1783 1.6466 2.8987.7204.7033 1.5437 1.1835 2.5042 1.3893.9606.2059 1.9383.2059 2.8988-.0343.9777-.2401 1.9039-.7032 2.813-1.3893.9262-.7204 1.6638-1.5952 2.2469-2.6758z" fill="#fff"/><path d="m69.045 36.8125c.2402-.1201.5489-.3088.892-.566.343-.2402.6861-.4803 1.0291-.7204.3431-.2402.6518-.446.9262-.6347.2745-.1886.4803-.2744.6175-.2744.446 0 .6861.2916.7376.8748.0343.1886-.1029.4631-.3945.8233s-.6518.7375-1.1149 1.1492c-.446.4116-.9606.8061-1.5266 1.2178s-1.1149.7375-1.6638 1.0291c-.3773 1.5781-.9605 3.0875-1.7324 4.5111-.7718 1.4236-1.7152 2.6415-2.8301 3.6535-1.1149 1.0119-2.3842 1.7495-3.8078 2.2298-1.4237.4802-2.9502.5488-4.5968.2229-1.458-.2572-2.7787-.8233-3.9451-1.6809-1.1663-.8405-2.1269-1.9382-2.8644-3.2761-.7376-1.3379-1.235-2.9159-1.4923-4.7169s-.2058-3.825.1544-6.0376c.223-1.3722.6175-2.6415 1.1835-3.825s1.235-2.2298 2.0068-3.156c.7719-.9262 1.6295-1.6981 2.5729-2.3499s1.921-1.1149 2.8987-1.4065c.8748-.2744 1.4923-.3259 1.8353-.1887.3431.1373.5318.3774.5832.6861.0343.3088-.0171.6347-.1715.9777-.1544.3431-.2745.5661-.3431.6861-.2401.3945-.5317.9262-.8747 1.5609-.3259.6518-.6347 1.3893-.9263 2.2126-.2915.8233-.5317 1.7496-.7375 2.7444s-.3431 2.0583-.3945 3.1732c-.0858 1.3893-.0515 2.7272.0857 4.0136.1373 1.2865.3602 2.4185.7033 3.3962.3259.9777.7547 1.7667 1.2521 2.3499.5146.5832 1.0978.8919 1.7496.9091 1.2178.0343 2.2469-.446 3.1045-1.4237s1.4923-2.3499 1.9382-4.1166c-1.5951.0515-2.8472-.2915-3.7735-1.0119-.9262-.7204-1.5951-1.6124-2.024-2.693-.4288-1.0806-.6346-2.2641-.6346-3.5333 0-1.2865.1372-2.5043.3945-3.6535s.6003-2.1612 1.0292-3.0017c.4288-.8404.8747-1.3721 1.3378-1.5951.8234-.3945 1.7667-.4117 2.7959-.0686 1.0463.343 2.0239.9948 2.933 1.921.9091.9434 1.6638 2.1269 2.2641 3.5677.6004 1.4408.892 3.0703.8576 4.8713v.566c.0172.1544 0 .3602-.0343.5832zm-8.4904-8.6276c-.1715.2744-.3087.7032-.4459 1.2692-.1372.5661-.223 1.2179-.223 1.9211-.0172.7204.0343 1.4579.1715 2.2127.1201.7547.3602 1.4579.7033 2.1097.343.6346.8061 1.1835 1.4065 1.6295.5831.4459 1.3378.6861 2.2469.7204.0858-.8405.1201-1.7153.1201-2.6587 0-1.7666-.1372-3.2589-.4117-4.4424-.2744-1.2007-.6175-2.0926-1.0291-2.6929-.4117-.6004-.8405-.8919-1.3036-.8919-.4631-.0172-.8748.2572-1.235.8233z" fill="#fff"/><path d="m83.5387 44.7197c.5831-.7204 1.1149-1.2007 1.6123-1.4065s.8576-.223 1.0977 0c.2402.2058.2745.6175.1373 1.2007-.1373.5831-.5318 1.3378-1.2007 2.2126-.3774.5317-.9091 1.0635-1.5952 1.5609-.6689.4974-1.4065.9262-2.2126 1.2864-.8062.3602-1.6295.6346-2.5214.8405-.8748.2058-1.7153.2572-2.5214.1715-1.4923-.1715-2.6243-.8576-3.379-2.0755-.7719-1.2006-1.3208-2.7786-1.6638-4.6997-.3431-1.9211-.5317-4.1166-.5489-6.5865-.0343-2.4699-.0343-5.0599 0-7.7529.0343-1.4236.0858-2.9845.1887-4.6825.1029-1.6981.223-3.3791.3945-5.0771.1715-1.6981.343-3.3276.5489-4.9228.2058-1.578.4116-2.9845.6175-4.2194.2058-1.235.4116-2.22984.6174-3.0017.2059-.77185.3945-1.20066.5489-1.25212 1.7324-.7204 3.1732-1.08059 4.3224-1.08059s2.024.34304 2.6072 1.02914c.5831.68609.8919 1.66377.909 2.9502.0172 1.28647-.2573 2.84727-.8061 4.68257-.8748 2.8816-1.5952 5.8833-2.1441 8.9878-.5488 3.1046-.9433 6.0377-1.1663 8.7992-.2402 2.7615-.3088 5.2658-.2402 7.4784.0686 2.2127.2916 3.8765.6861 4.9914.223.6517.5318 1.1663.9434 1.5608.4117.3945.8748.6518 1.4065.7376.5317.1029 1.0806.0171 1.6466-.2402.6004-.2744 1.1664-.7718 1.7153-1.4922z" fill="#fff"/><path d="m95.2539 44.6168c.5146-.669 1.0291-1.0978 1.5266-1.2864.4974-.1887.8576-.1887 1.1149.0343.2401.2229.3087.6003.2058 1.1492-.1029.5488-.5146 1.2349-1.2007 2.0411-.4459.4803-.9605.9605-1.5608 1.4408-.6004.4803-1.2693.8919-2.0069 1.2521-.7204.3602-1.4922.6347-2.2812.8233-.8062.1887-1.5952.2573-2.4014.1887-1.4922-.1201-2.6586-.6689-3.5333-1.6295-.8748-.9605-1.5094-2.2641-1.9383-3.9107-.4288-1.6466-.6689-3.5848-.7032-5.8318-.0515-2.247.0343-4.6997.223-7.3584.0514-.8061.0857-1.6123.1029-2.4184.0171-.8062.0343-1.5437.0858-2.2127.0343-.6689.1029-1.235.1886-1.7152.0858-.4803.2402-.8062.446-.9605 1.3379-1.012 2.5385-1.6124 3.602-1.8354 1.0634-.2229 1.921-.0686 2.5728.4289.6518.4974 1.0806 1.355 1.2865 2.5557.1886 1.2178.12 2.7615-.2402 4.6482-.3602 1.9211-.6175 3.6192-.8061 5.0943-.1715 1.4922-.2916 2.7958-.3259 3.9107-.0343 1.1321-.0172 2.0926.0686 2.8816.0858.8062.2058 1.4751.3773 2.024.1029.4631.3602.8576.7376 1.2178.3773.3602.8233.6003 1.3207.7547s1.012.1372 1.5609-.0514c.566-.1887 1.0806-.6004 1.578-1.235zm-3.0531-30.1024c.4116.8919.566 1.6981.4802 2.4528-.1029.7547-.343 1.4237-.7547 1.9897-.4116.5832-.9605 1.0291-1.6294 1.355-.669.3259-1.3722.5317-2.1269.5832-.7376.0515-1.4751-.0515-2.2298-.3259-.7376-.2744-1.4065-.7375-1.9725-1.4236-.7204-.8234-.8577-1.7667-.4117-2.813s1.4923-2.0412 3.1732-3.0188c.4116-.2573.8576-.4975 1.3379-.7204.4802-.2402.9605-.3602 1.4408-.3774.4802-.0171.9433.1372 1.4064.446.446.3602.8748.9605 1.2865 1.8524z" fill="#fff"/><path d="m115.717 36.2121c.514-.3259 1.029-.7033 1.543-1.1149.515-.4117.961-.7547 1.373-1.0635.411-.3087.754-.4974 1.046-.5831.291-.0858.48.0343.6.343.086.2058-.017.5146-.309.9262-.291.4117-.686.8576-1.217 1.3551-.515.4802-1.132.9605-1.836 1.4236-.703.4631-1.423.8576-2.195 1.1492-.772 1.6295-1.681 3.1217-2.745 4.4768-1.063 1.355-2.178 2.5214-3.344 3.4991-1.167.9776-2.333 1.7323-3.499 2.2641-1.167.5317-2.23.7547-3.191.6689-1.595-.1029-3.0014-.7204-4.202-1.8353-1.2178-1.1149-2.024-2.7272-2.4357-4.837-.3945-1.9039-.6346-3.945-.7547-6.089-.12-2.1441-.1372-4.1166-.0686-5.9347.0686-1.8182.1887-3.3276.3774-4.5454.1886-1.2178.3945-1.8868.6175-2.0068 1.6123-.8405 2.9845-1.235 4.0822-1.235 1.0979.0171 1.9379.343 2.5389.9948.583.6518.943 1.578 1.029 2.7787.103 1.2007-.035 2.59-.378 4.1509-.325 1.3722-.514 2.9673-.548 4.7512-.035 1.7838.034 3.499.24 5.1285.223 1.9039.617 3.3276 1.2 4.271.584.9433 1.218 1.1149 1.904.5317.635-.566 1.27-1.4237 1.939-2.5729.651-1.1663 1.252-2.4699 1.766-3.945-1.149-.3431-2.092-.9605-2.796-1.8696-.72-.9091-1.235-1.9554-1.543-3.1217-.326-1.1836-.463-2.4185-.446-3.7221s.188-2.5214.514-3.6535c.309-1.132.755-2.0925 1.338-2.8987s1.235-1.2864 1.973-1.4751c.926-.2401 1.835-.3602 2.693-.3602.857 0 1.646.1372 2.367.4288.72.2916 1.32.7204 1.835 1.3207.514.6004.892 1.3894 1.132 2.3842.412 1.7496.549 3.4648.429 5.1286-.189 1.6809-.515 3.3104-1.029 4.8884zm-7.479-11.9037c-.652.4802-1.149 1.3035-1.475 2.4699s-.446 2.4356-.36 3.7735.412 2.6072.978 3.8078c.566 1.2007 1.406 2.0583 2.538 2.5557.223-.8233.377-1.6466.498-2.5042.102-.8405.154-1.6638.154-2.47 0-3.1903-.257-5.3686-.738-6.5178-.497-1.1492-1.029-1.5266-1.595-1.1149z" fill="#fff"/><path d="m139.044 35.9377c.308-.5318.566-.9091.823-1.1149.24-.2059.446-.2573.6-.1544.155.1029.223.3602.206.7375-.017.3946-.12.892-.309 1.5266-.36 1.1149-1.046 2.2641-2.075 3.4476s-2.213 2.2813-3.55 3.2933c-1.338 1.012-2.728 1.8353-4.186 2.4871-1.44.6518-2.796.9777-4.013.9948-1.458 0-2.745-.2916-3.86-.8919-1.132-.6004-2.041-1.4751-2.761-2.6243-.721-1.1492-1.184-2.5557-1.424-4.2024-.24-1.6466-.188-3.5162.137-5.5573.241-1.4923.755-2.8816 1.51-4.168.772-1.2865 1.681-2.4357 2.727-3.4477 1.046-1.0119 2.196-1.8353 3.431-2.4699 1.235-.6518 2.435-1.0463 3.619-1.2178 1.183-.1715 2.281-.0858 3.31.2573 1.029.3259 1.853.9605 2.487 1.9039.686 1.0463.944 2.2641.806 3.6534-.154 1.4065-.634 2.8473-1.44 4.3396-.807 1.4922-1.887 2.933-3.259 4.3052-1.373 1.3722-2.933 2.5214-4.683 3.4305-.051.0343-.103.0686-.172.1029.361.6518.841 1.0978 1.458 1.3379.618.2401 1.304.3259 2.059.2573.754-.0686 1.543-.2916 2.367-.6518.823-.3602 1.612-.8062 2.401-1.3722.772-.566 1.492-1.2007 2.144-1.9211.652-.7375 1.201-1.4922 1.647-2.2812zm-12.847-1.1492c-.138 1.2178-.138 2.2984 0 3.2418 1.097-.9091 2.006-1.9897 2.727-3.2418.72-1.2522 1.269-2.4871 1.646-3.7221.361-1.2178.567-2.3499.601-3.3619.034-1.0291-.103-1.7666-.412-2.2298-.309-.4974-.669-.6517-1.115-.4802s-.875.6518-1.32 1.4408c-.446.789-.841 1.8867-1.235 3.2932-.378 1.3894-.687 3.0874-.892 5.06z" fill="#fff"/><g clip-rule="evenodd" fill-rule="evenodd"><path d="m119.421 10.2058c1.972 1.5266 3.362 4.5626 3.756 7.3755-5.317-2.1268-12.401-5.8832-9.433-16.22608 2.469 3.51623 14.03 6.1577 13.018 14.92258 5.506-12.38403 21.441-4.6826 27.238-6.55223-5.077 14.09923-16.037 12.12673-23.687 9.87973 2.727-2.7958 6.723-4.9742 10.171-4.9742-5.214-1.5265-10 .4288-14.151 4.4082-.291.2916-.377.3945-.549.7032l-.017-.1372c-.531-3.6191-2.041-7.6842-6.346-9.3995z" fill="#18341a"/><path d="m119.01 8.76485c1.955 1.52655 3.327 4.52825 3.722 7.32405-5.266-2.0926-12.299-5.8318-9.365-16.0889 2.435 3.49908 13.927 6.12339 12.932 14.8196 5.472-12.2982 21.286-4.6483 27.05-6.50071-5.043 13.97911-15.918 12.04091-23.499 9.81111 2.71-2.7787 6.689-4.9398 10.103-4.9398-5.163-1.5266-9.914.4288-14.048 4.3738-.292.2916-.377.3774-.549.7032l-.017-.1372c-.583-3.6363-2.076-7.6499-6.329-9.36515z" fill="url(#a)"/><path d="m147.122 14.0994-.292.3088c-1.526 1.5951-3.481 2.8301-5.951 3.3961-2.693.6175-5.592.3602-8.422-.2401l-.069.0515c3.225.8061 6.57 1.2349 9.657.5317 4.7-1.0806 7.461-4.5282 9.176-8.31891-.428 0-.874 0-1.32-.0343-.704 1.54371-1.613 3.03601-2.779 4.30521z" fill="#3b9239"/><path d="m128.443 14.3052c3.053-2.2641 6.844-3.6191 11.304-2.6757l-.79-.1887c-3.601-.8576-6.775-.223-9.485 1.2007-.394.4974-.737 1.0463-1.029 1.6637z" fill="#3b9239"/><path d="m114.19 6.53526c.257 1.37219.823 2.71007 1.835 3.94504 1.269 1.5437 3.019 2.6586 4.888 3.5505l-.034-.1029c-1.527-.8233-2.95-1.8181-4.031-3.1217-.926-1.11491-1.475-2.33272-1.767-3.56769l-.205-1.35504 4.562 1.81815c.069.01716.12.05146.189.06861l-4.751-1.90391c-.086-.96053-.018-1.93821.12-2.89874-.258-.17153-.532-.3602-.789-.54888-.172 1.01199-.24 2.07543-.155 3.10458z" fill="#3b9239"/><path d="m124.79 13.1217c-.944-2.7273-2.693-5.21435-5.781-6.62085l.549.24014c2.539 1.08059 4.202 2.86444 5.283 4.92271.034.4631.017.9605-.051 1.458z" fill="#3b9239"/><path d="m118.34 9.19385c.018.06861.035.13722.035.20583.051.56603-.309 1.01202-.806 1.01202-.498-.0172-.961-.4803-1.012-1.04633 0-.06861 0-.13721 0-.20582v.01715c.051.54887.497 1.012.994 1.0291.498.0172.841-.42877.789-.97765z" fill="#1c582f"/><path d="m117.363 8.25049c.497.01715.943.48026.995 1.02914.051.54887-.309.99487-.807.97767-.497-.0171-.943-.48025-.994-1.02913-.052-.54887.308-.97768.806-.97768z" fill="url(#c)"/><path d="m119.49 11.6295c.017.0515.017.0858.034.1372.034.3774-.206.6861-.549.6861-.343-.0171-.652-.3259-.686-.7204 0-.0514 0-.0857 0-.1372v.0172c.034.3773.343.6861.669.7032.326 0 .566-.2916.532-.6861z" fill="#1c582f"/><path d="m118.821 10.9777c.343.0171.652.3259.686.7032.034.3774-.206.6861-.549.6689-.343-.0171-.652-.3258-.686-.7032-.034-.3773.223-.6689.549-.6689z" fill="url(#d)"/><path d="m116.985 11.1321c.017.0514.017.0857.035.1372.034.3774-.206.6861-.549.6861-.343-.0172-.652-.3259-.686-.7204 0-.0515 0-.0858 0-.1372v.0171c.034.3774.343.6861.669.7033.326 0 .566-.2916.531-.6861z" fill="#1c582f"/><path d="m116.316 10.4802c.343.0172.652.3259.686.7033.035.3773-.205.6861-.548.6689-.344-.0171-.652-.3259-.687-.7032-.034-.3774.206-.669.549-.669z" fill="url(#e)"/><path d="m116.454 4.09961c.017.05146.017.10292.034.15437.034.42881-.223.77186-.6.75471-.378-.01716-.721-.3602-.755-.78901 0-.05146 0-.10292 0-.15437v.01715c.034.41166.377.77186.738.77186.377.01715.634-.3259.6-.73756z" fill="#1c582f"/><path d="m115.716 3.39637c.377.01715.703.3602.755.77185.034.41166-.223.75471-.601.73755-.377-.01715-.703-.36019-.754-.77185-.052-.41166.24-.7547.6-.73755z" fill="url(#f)"/><path d="m117.946 4.85425c.017.0343.017.06861.017.12006.034.30875-.171.54888-.446.54888-.274 0-.514-.25729-.549-.56603 0-.0343 0-.06861 0-.10291v.01715c.035.30874.275.54888.532.56603.292-.01715.48-.25729.446-.58318z" fill="#1c582f"/><path d="m117.414 4.33972c.275 0 .515.25729.549.56603s-.171.54887-.429.53172c-.274 0-.514-.25728-.549-.56603-.034-.29159.155-.53172.429-.53172z" fill="url(#g)"/><path d="m123.503 8.5592c.017.03431.017.06861.017.12007.035.30874-.171.54888-.445.54888-.275 0-.515-.25729-.549-.56603 0-.03431 0-.06861 0-.10292v.01716c.034.30874.274.54887.531.56602.292-.0343.481-.27443.446-.58318z" fill="#1c582f"/><path d="m122.972 8.04469c.274 0 .514.25728.549.56603.034.30874-.172.54887-.429.53172-.275 0-.515-.25729-.549-.56603s.154-.54887.429-.53172z" fill="url(#h)"/><path d="m138.306 15.5402c.017.0686.017.1372.034.2058.034.566-.36.9948-.858.9777-.497-.0343-.943-.5146-.96-1.0806 0-.0686 0-.1372 0-.2058v.0171c.034.5489.463 1.0291.943 1.0635.498.0343.875-.3946.841-.9606z" fill="#1c582f"/><path d="m137.362 14.5625c.498.0343.927.5145.961 1.0634s-.343.9777-.858.9434c-.497-.0343-.926-.5146-.96-1.0635-.017-.5488.36-.9776.857-.9433z" fill="url(#i)"/><path d="m139.352 17.993c.017.0514.017.0857.017.1372.017.3774-.24.6861-.583.6518-.343-.0172-.635-.3431-.652-.7376 0-.0514 0-.0857 0-.1372v.0172c.017.3773.309.7032.652.7204.326.0343.583-.2573.566-.6518z" fill="#1c582f"/><path d="m138.7 17.324c.343.0171.635.343.652.7204.017.3773-.24.6689-.583.6517-.343-.0171-.635-.343-.652-.7203 0-.3774.257-.669.583-.6518z" fill="url(#j)"/><path d="m136.848 17.4099c.017.0514.017.0857.017.1372.017.3773-.24.6861-.583.6518-.343-.0172-.635-.3431-.652-.7376 0-.0514 0-.0857 0-.1372v.0171c.017.3774.309.7033.652.7204.326.0344.583-.2572.566-.6517z" fill="#1c582f"/><path d="m136.213 16.7408c.343.0172.635.3431.652.7204.017.3774-.24.669-.583.6518-.343-.0171-.635-.343-.652-.7204-.017-.3773.24-.6689.583-.6518z" fill="url(#k)"/><path d="m145.441 10.5831c.017.0686.017.1373.034.2059.035.566-.36.9948-.857.9777-.498-.0172-.944-.5146-.961-1.0806 0-.0687 0-.1373 0-.2059v.0172c.035.5489.463 1.0291.944 1.0634.497.0343.874-.3945.84-.9605z" fill="#1c582f"/><path d="m144.498 9.60544c.497.0343.926.51456.96 1.06346s-.343.9777-.858.9434c-.497-.0343-.926-.5146-.96-1.0635-.017-.54886.36-.97767.858-.94336z" fill="url(#l)"/><path d="m147.499 13.1045c.017.0686.017.1201.035.1887.034.5145-.326.9091-.772.8747-.446-.0343-.841-.4631-.875-.9776 0-.0686 0-.1201 0-.1887v.0171c.034.4975.412.9263.858.9606s.789-.3602.754-.8576z" fill="#1c582f"/><path d="m146.642 12.2298c.446.0343.84.4631.857.9606.035.4974-.308.8919-.771.8576-.446-.0343-.841-.4631-.858-.9606-.017-.5145.326-.8919.772-.8576z" fill="url(#m)"/><path d="m137.894 9.8971c.017.06861.017.1201.034.1887.035.5145-.326.9091-.771.8747-.446-.0343-.841-.4631-.875-.97763 0-.06861 0-.12007 0-.18868v.01715c.034.49746.411.92626.857.96056s.789-.3602.755-.85764z" fill="#1c582f"/><path d="m137.036 9.02234c.446.03431.841.46312.858.96053.034.49743-.309.89193-.772.85763-.446-.0343-.84-.4631-.857-.96054-.018-.49742.325-.89192.771-.85762z" fill="url(#n)"/></g></svg>